<svg width="17" height="17" viewBox="0 0 17 17" fill="none" xmlns="http://www.w3.org/2000/svg">
<path d="M15.9972 1.14955C15.8855 0.892856 15.6289 0.714285 15.3387 0.714285H1.05296C0.762779 0.714285 0.506082 0.892856 0.394475 1.14955C0.282868 1.41741 0.338672 1.72991 0.550725 1.9308L6.05296 7.43304V12.8571C6.05296 13.0469 6.13108 13.2254 6.26501 13.3594L9.12215 16.2165C9.25608 16.3616 9.43465 16.4286 9.62439 16.4286C9.71367 16.4286 9.81412 16.4062 9.9034 16.3728C10.1601 16.2612 10.3387 16.0045 10.3387 15.7143V7.43304L15.8409 1.9308C16.053 1.72991 16.1088 1.41741 15.9972 1.14955Z" fill="#d90414"/>
</svg>
