<svg width="16" height="15" viewBox="0 0 16 15" fill="none" xmlns="http://www.w3.org/2000/svg">
<path d="M15.75 1.40625V4.90625C15.75 5.08854 15.6862 5.24349 15.5586 5.37109C15.431 5.4987 15.276 5.5625 15.0938 5.5625C14.9115 5.5625 14.7565 5.4987 14.6289 5.37109L13.6445 4.38672L7 11.0586C6.8724 11.1862 6.71745 11.25 6.53516 11.25C6.35286 11.25 6.19792 11.1862 6.07031 11.0586L5.44141 10.4297C5.3138 10.3021 5.25 10.1471 5.25 9.96484C5.25 9.78255 5.3138 9.6276 5.44141 9.5L12.1133 2.85547L11.1289 1.87109C11.0013 1.74349 10.9375 1.58854 10.9375 1.40625C10.9375 1.22396 11.0013 1.06901 11.1289 0.941406C11.2565 0.813802 11.4115 0.75 11.5938 0.75H15.0938C15.276 0.75 15.431 0.813802 15.5586 0.941406C15.6862 1.06901 15.75 1.22396 15.75 1.40625ZM11.1289 8.16016L10.6914 8.59766C10.5638 8.72526 10.5 8.88021 10.5 9.0625V13H1.75V4.25H8.96875C9.15104 4.25 9.30599 4.1862 9.43359 4.05859L9.87109 3.62109C9.9987 3.49349 10.0625 3.33854 10.0625 3.15625C10.0625 2.97396 9.9987 2.81901 9.87109 2.69141C9.74349 2.5638 9.58854 2.5 9.40625 2.5H1.3125C0.947917 2.5 0.638021 2.6276 0.382812 2.88281C0.127604 3.13802 0 3.44792 0 3.8125V13.4375C0 13.8021 0.127604 14.112 0.382812 14.3672C0.638021 14.6224 0.947917 14.75 1.3125 14.75H10.9375C11.3021 14.75 11.612 14.6224 11.8672 14.3672C12.1224 14.112 12.25 13.8021 12.25 13.4375V8.625C12.25 8.42448 12.1862 8.26953 12.0586 8.16016C11.931 8.03255 11.776 7.96875 11.5938 7.96875C11.4115 7.95052 11.2565 8.01432 11.1289 8.16016Z" fill="#d90414"/>
</svg>
