<svg width="18" height="19" viewBox="0 0 18 19" fill="none" xmlns="http://www.w3.org/2000/svg">
<path d="M17.2855 4.99265L12.5853 0.108748C12.5184 0.0392762 12.4261 0 12.3297 0H5.32448C4.5405 0 3.90268 0.637571 3.90268 1.42122V6.3862H1.06374C0.477187 6.3862 0 6.86324 0 7.44964V12.7733C0 13.3597 0.477187 13.8367 1.06374 13.8367H3.90268V17.0303C3.90268 17.8125 4.5405 18.449 5.32448 18.449H15.9628C16.7468 18.449 17.3846 17.8129 17.3846 17.031V5.23868C17.3846 5.14694 17.3491 5.05877 17.2855 4.99265ZM12.4176 0.957798L16.276 4.96703H12.4176V0.957798ZM1.06374 13.1272C0.868436 13.1272 0.709601 12.9684 0.709601 12.7733V7.44964C0.709601 7.25452 0.868472 7.09576 1.06374 7.09576H10.6443C10.8396 7.09576 10.9984 7.25452 10.9984 7.44964V12.7733C10.9984 12.9684 10.8396 13.1272 10.6443 13.1272H1.06374ZM16.675 17.031C16.675 17.4216 16.3555 17.7394 15.9628 17.7394H5.32448C4.93175 17.7394 4.61225 17.4213 4.61225 17.0303V13.8367H10.6443C11.2309 13.8367 11.708 13.3597 11.708 12.7733V7.44964C11.708 6.86324 11.2309 6.3862 10.6443 6.3862H4.61225V1.42122C4.61225 1.02878 4.93175 0.709565 5.32448 0.709565H11.708V5.32181C11.708 5.51776 11.8669 5.67659 12.0628 5.67659H16.675V17.031Z" fill="#d90414"/>
<path d="M4.24183 9.00518C4.12404 8.85204 3.97782 8.75259 3.8032 8.70686C3.68955 8.67638 3.44564 8.66113 3.07144 8.66113H2.08398V11.7087H2.69932V10.5591H3.10055C3.37912 10.5591 3.59186 10.5446 3.73877 10.5154C3.84687 10.4919 3.95324 10.4437 4.05788 10.3709C4.16252 10.2982 4.24879 10.1981 4.31671 10.0706C4.38463 9.94309 4.41857 9.78576 4.41857 9.59868C4.41854 9.35614 4.35962 9.15832 4.24183 9.00518ZM3.71485 9.84399C3.66844 9.91192 3.60433 9.96179 3.52254 9.99368C3.44074 10.0256 3.27863 10.0415 3.03609 10.0415H2.69932V9.1767H2.9966C3.21834 9.1767 3.36594 9.18361 3.43937 9.19749C3.53915 9.2155 3.62163 9.26054 3.68674 9.33261C3.75189 9.40468 3.78446 9.49617 3.78446 9.607C3.7845 9.69709 3.76126 9.77607 3.71485 9.84399Z" fill="#d90414"/>
<path d="M7.37602 9.49372C7.3095 9.29899 7.21247 9.13443 7.08498 8.99999C6.95749 8.86555 6.80432 8.77201 6.62556 8.71933C6.49252 8.68052 6.29917 8.66113 6.04557 8.66113H4.9209V11.7087H6.07883C6.30612 11.7087 6.48766 11.6872 6.62347 11.6442C6.80504 11.5861 6.94917 11.505 7.05586 11.401C7.19722 11.2638 7.30601 11.0844 7.38225 10.8626C7.44463 10.681 7.4758 10.4648 7.4758 10.214C7.4758 9.92853 7.44254 9.68844 7.37602 9.49372ZM6.77729 10.7452C6.73571 10.8817 6.68202 10.9798 6.61619 11.0393C6.55036 11.0989 6.46755 11.1412 6.36778 11.1661C6.29156 11.1855 6.1675 11.1952 5.99566 11.1952H5.53624V9.1767H5.81272C6.06355 9.1767 6.23197 9.18639 6.31787 9.20581C6.43289 9.23075 6.52783 9.27856 6.60268 9.34926C6.67752 9.41996 6.73571 9.51833 6.77729 9.64444C6.81887 9.77056 6.83967 9.95141 6.83967 10.187C6.83967 10.4226 6.81887 10.6087 6.77729 10.7452Z" fill="#d90414"/>
<path d="M10.0912 9.1767V8.66113H8.00195V11.7087H8.61729V10.4136H9.88955V9.89804H8.61729V9.1767H10.0912Z" fill="#d90414"/>
</svg>
