<svg width="50" height="51" viewBox="0 0 50 51" fill="none" xmlns="http://www.w3.org/2000/svg">
<path d="M29.64 50.36V25.76C29.64 19.04 31.4 13.52 34.92 9.20001C38.52 4.88001 43.4 2 49.56 0.56V11.48C45.8 12.6 43.36 14.36 42.24 16.76C41.2 19.08 40.68 22.08 40.68 25.76V28.4H49.56V50.36H29.64ZM-7.15256e-07 50.36V25.76C-7.15256e-07 19.04 1.76 13.52 5.28 9.20001C8.88 4.88001 13.76 2 19.92 0.56V11.48C16.16 12.6 13.72 14.36 12.6 16.76C11.56 19.08 11.04 22.08 11.04 25.76V28.4H19.92V50.36H-7.15256e-07Z" fill="#A7C399"/>
</svg>
