<svg width="50" height="50" viewBox="0 0 50 50" fill="none" xmlns="http://www.w3.org/2000/svg">
<g clip-path="url(#clip0)">
<g filter="url(#filter0_d)">
<path d="M39.7192 26.083C37.7094 20.3711 34.0151 14.7178 31.2641 10.9834C29.5392 8.62775 27.695 6.36178 25.7387 4.19434L25.7251 4.17969C25.7143 4.16797 25.7026 4.15625 25.6919 4.14649C25.6835 4.13788 25.6743 4.13004 25.6645 4.12305L25.6469 4.10938C25.6354 4.10057 25.6233 4.09242 25.6108 4.08496C25.6108 4.08496 25.6108 4.08496 25.604 4.08496C25.5938 4.07697 25.5827 4.0704 25.5708 4.06543C25.5631 4.06056 25.5549 4.05662 25.5464 4.05371C25.5364 4.04848 25.5259 4.04423 25.5151 4.04102C25.5009 4.03398 25.4863 4.02811 25.4712 4.02344L25.435 4.01465C25.4222 4.01143 25.4091 4.00914 25.396 4.00782L25.3588 4.00293C25.3238 3.99902 25.2884 3.99902 25.2534 4.00293L25.2163 4.00782C25.2034 4.00923 25.1907 4.01151 25.1782 4.01465L25.1421 4.02344C25.1265 4.02785 25.1115 4.03374 25.0971 4.04102C25.0863 4.04423 25.0759 4.04848 25.0659 4.05371C25.0573 4.05662 25.0491 4.06056 25.0415 4.06543C25.0296 4.0704 25.0184 4.07697 25.0083 4.08496C25.0083 4.08496 25.0083 4.08496 25.0014 4.08496C24.9889 4.09242 24.9769 4.10057 24.9653 4.10938L24.9477 4.12305C24.9379 4.13004 24.9288 4.13788 24.9204 4.14649C24.9057 4.16016 24.8911 4.17578 24.8774 4.19043C22.9204 6.35909 21.0756 8.62637 19.3501 10.9834C16.6001 14.7178 12.9047 20.3711 10.896 26.083C10.0486 28.4676 9.79714 31.0233 10.1635 33.5273C10.5144 35.9104 11.4053 38.1818 12.768 40.168C15.5581 44.2285 19.9604 46.6387 24.8462 46.7793C24.9985 46.7793 25.1538 46.7861 25.3081 46.7861C25.4624 46.7861 25.6176 46.7861 25.77 46.7793C30.6528 46.6387 35.0581 44.2285 37.8481 40.168C39.2109 38.1818 40.1017 35.9104 40.4526 33.5273C40.8187 31.0232 40.5669 28.4676 39.7192 26.083ZM36.9048 39.5225C34.3227 43.2783 30.2524 45.5098 25.7368 45.6377C25.5942 45.6426 25.4497 45.6445 25.3071 45.6445C25.1645 45.6445 25.02 45.6445 24.8774 45.6377C20.3618 45.5068 16.2915 43.2783 13.7094 39.5225C12.403 37.641 11.5641 35.4751 11.2623 33.2046C10.9605 30.934 11.2045 28.6242 11.9741 26.4668C15.2827 17.0352 23.3755 7.5918 25.3071 5.42285C27.2387 7.5918 35.3315 17.0352 38.6401 26.4668C39.4096 28.6242 39.6536 30.934 39.3518 33.2046C39.05 35.4751 38.2111 37.641 36.9048 39.5225Z" fill="#ffffff"/>
</g>
<path d="M24.9996 41.5561C24.9225 41.5593 24.8456 41.5469 24.7734 41.5196C24.7013 41.4923 24.6354 41.4507 24.5797 41.3972C24.5241 41.3438 24.4798 41.2797 24.4495 41.2088C24.4193 41.1378 24.4037 41.0615 24.4037 40.9843C24.4037 40.9072 24.4193 40.8308 24.4495 40.7599C24.4798 40.6889 24.5241 40.6248 24.5797 40.5714C24.6354 40.518 24.7013 40.4764 24.7734 40.4491C24.8456 40.4218 24.9225 40.4094 24.9996 40.4125C27.2782 40.4105 29.4628 39.5044 31.074 37.8932C32.6852 36.282 33.5913 34.0974 33.5933 31.8188C33.5901 31.7417 33.6026 31.6648 33.6299 31.5927C33.6572 31.5205 33.6988 31.4546 33.7522 31.399C33.8056 31.3433 33.8697 31.299 33.9407 31.2688C34.0116 31.2385 34.088 31.2229 34.1651 31.2229C34.2423 31.2229 34.3186 31.2385 34.3896 31.2688C34.4605 31.299 34.5246 31.3433 34.578 31.399C34.6314 31.4546 34.673 31.5205 34.7003 31.5927C34.7276 31.6648 34.7401 31.7417 34.7369 31.8188C34.7346 34.4006 33.7079 36.8759 31.8823 38.7015C30.0567 40.5271 27.5814 41.5538 24.9996 41.5561Z" fill="#ffffff"/>
</g>
<defs>
<filter id="filter0_d" x="6" y="4" width="38.6159" height="50.7861" filterUnits="userSpaceOnUse" color-interpolation-filters="sRGB">
<feFlood flood-opacity="0" result="BackgroundImageFix"/>
<feColorMatrix in="SourceAlpha" type="matrix" values="0 0 0 0 0 0 0 0 0 0 0 0 0 0 0 0 0 0 127 0"/>
<feOffset dy="4"/>
<feGaussianBlur stdDeviation="2"/>
<feColorMatrix type="matrix" values="0 0 0 0 0 0 0 0 0 0 0 0 0 0 0 0 0 0 0.25 0"/>
<feBlend mode="normal" in2="BackgroundImageFix" result="effect1_dropShadow"/>
<feBlend mode="normal" in="SourceGraphic" in2="effect1_dropShadow" result="shape"/>
</filter>
<clipPath id="clip0">
<rect width="50" height="50" fill="white"/>
</clipPath>
</defs>
</svg>
