<svg width="141" height="386" viewBox="0 0 141 386" fill="none" xmlns="http://www.w3.org/2000/svg">
<rect x="141" y="239" width="11.3242" height="97.9993" transform="rotate(90 141 239)" fill="#226A00" fill-opacity="0.4"/>
<rect x="79" y="266.498" width="10.1842" height="36" transform="rotate(90 79 266.498)" fill="#226A00" fill-opacity="0.4"/>
<rect x="79" y="293.994" width="10.1842" height="36" transform="rotate(90 79 293.994)" fill="#226A00" fill-opacity="0.4"/>
<rect x="79" y="320.473" width="11.2026" height="36" transform="rotate(90 79 320.473)" fill="#226A00" fill-opacity="0.4"/>
<rect x="79" y="347.971" width="11.2026" height="36" transform="rotate(90 79 347.971)" fill="#226A00" fill-opacity="0.4"/>
<rect x="141" y="374.449" width="11.2026" height="98" transform="rotate(90 141 374.449)" fill="#226A00" fill-opacity="0.4"/>
<rect width="5" height="16" transform="matrix(3.11055e-08 1 1 -6.1426e-08 27 12)" fill="#226A00" fill-opacity="0.4"/>
<rect width="5" height="16" transform="matrix(3.11055e-08 1 1 -6.1426e-08 27 24)" fill="#226A00" fill-opacity="0.4"/>
<rect width="5" height="16" transform="matrix(3.11055e-08 1 1 -6.1426e-08 27 36)" fill="#226A00" fill-opacity="0.4"/>
<rect width="5" height="16" transform="matrix(3.11055e-08 1 1 -6.1426e-08 27 48)" fill="#226A00" fill-opacity="0.4"/>
<rect width="6" height="43" transform="matrix(6.4512e-08 1 1 -4.43256e-08 0 0)" fill="#226A00" fill-opacity="0.4"/>
<rect width="5" height="16" transform="matrix(3.11055e-08 1 1 -6.1426e-08 27 132)" fill="#226A00" fill-opacity="0.4"/>
<rect width="5" height="16" transform="matrix(3.11055e-08 1 1 -6.1426e-08 27 144)" fill="#226A00" fill-opacity="0.4"/>
<rect width="5" height="16" transform="matrix(3.11055e-08 1 1 -6.1426e-08 27 156)" fill="#226A00" fill-opacity="0.4"/>
<rect width="5" height="16" transform="matrix(3.11055e-08 1 1 -6.1426e-08 27 168)" fill="#226A00" fill-opacity="0.4"/>
<rect width="6" height="43" transform="matrix(6.4512e-08 1 1 -4.43256e-08 0 120)" fill="#226A00" fill-opacity="0.4"/>
<rect width="5" height="16" transform="matrix(3.11055e-08 1 1 -6.1426e-08 27 192)" fill="#226A00" fill-opacity="0.4"/>
<rect width="5" height="16" transform="matrix(3.11055e-08 1 1 -6.1426e-08 27 204)" fill="#226A00" fill-opacity="0.4"/>
<rect width="5" height="16" transform="matrix(3.11055e-08 1 1 -6.1426e-08 27 216)" fill="#226A00" fill-opacity="0.4"/>
<rect width="5" height="16" transform="matrix(3.11055e-08 1 1 -6.1426e-08 27 228)" fill="#226A00" fill-opacity="0.4"/>
<rect width="6" height="43" transform="matrix(6.4512e-08 1 1 -4.43256e-08 0 180)" fill="#226A00" fill-opacity="0.4"/>
<rect width="5" height="16" transform="matrix(3.11055e-08 1 1 -6.1426e-08 27 72)" fill="#226A00" fill-opacity="0.4"/>
<rect width="5" height="16" transform="matrix(3.11055e-08 1 1 -6.1426e-08 27 84)" fill="#226A00" fill-opacity="0.4"/>
<rect width="5" height="16" transform="matrix(3.11055e-08 1 1 -6.1426e-08 27 96)" fill="#226A00" fill-opacity="0.4"/>
<rect width="5" height="16" transform="matrix(3.11055e-08 1 1 -6.1426e-08 27 108)" fill="#226A00" fill-opacity="0.4"/>
<rect width="6" height="43" transform="matrix(6.4512e-08 1 1 -4.43256e-08 0 60)" fill="#226A00" fill-opacity="0.4"/>
</svg>
