<svg width="141" height="385" viewBox="0 0 141 385" fill="none" xmlns="http://www.w3.org/2000/svg">
<rect width="5" height="16" transform="matrix(3.11055e-08 1 1 -6.1426e-08 27 332)" fill="#226A00" fill-opacity="0.4"/>
<rect width="4" height="16" transform="matrix(3.11055e-08 1 1 -6.1426e-08 27 344)" fill="#226A00" fill-opacity="0.4"/>
<rect width="4" height="16" transform="matrix(3.11055e-08 1 1 -6.1426e-08 27 356)" fill="#226A00" fill-opacity="0.4"/>
<rect width="4" height="16" transform="matrix(3.11055e-08 1 1 -6.1426e-08 27 368)" fill="#226A00" fill-opacity="0.4"/>
<rect width="5" height="16" transform="matrix(3.11055e-08 1 1 -6.1426e-08 27 12)" fill="#226A00" fill-opacity="0.4"/>
<rect width="5" height="16" transform="matrix(3.11055e-08 1 1 -6.1426e-08 27 36)" fill="#226A00" fill-opacity="0.4"/>
<rect width="5" height="16" transform="matrix(3.11055e-08 1 1 -6.1426e-08 27 48)" fill="#226A00" fill-opacity="0.4"/>
<rect width="5" height="16" transform="matrix(3.11055e-08 1 1 -6.1426e-08 27 132)" fill="#226A00" fill-opacity="0.4"/>
<rect width="5" height="16" transform="matrix(3.11055e-08 1 1 -6.1426e-08 27 144)" fill="#226A00" fill-opacity="0.4"/>
<rect width="5" height="16" transform="matrix(3.11055e-08 1 1 -6.1426e-08 27 156)" fill="#226A00" fill-opacity="0.4"/>
<rect width="5" height="16" transform="matrix(3.11055e-08 1 1 -6.1426e-08 27 72)" fill="#226A00" fill-opacity="0.4"/>
<rect width="5" height="16" transform="matrix(3.11055e-08 1 1 -6.1426e-08 27 84)" fill="#226A00" fill-opacity="0.4"/>
<rect width="5" height="16" transform="matrix(3.11055e-08 1 1 -6.1426e-08 27 96)" fill="#226A00" fill-opacity="0.4"/>
<rect width="5" height="16" transform="matrix(3.11055e-08 1 1 -6.1426e-08 27 108)" fill="#226A00" fill-opacity="0.4"/>
<rect width="5" height="43" transform="matrix(4.72373e-08 1 1 -5.38329e-08 0 380)" fill="#226A00" fill-opacity="0.4"/>
<rect width="5" height="16" transform="matrix(3.11055e-08 1 1 -6.1426e-08 27 24)" fill="#226A00" fill-opacity="0.4"/>
<rect width="6" height="43" transform="matrix(6.4512e-08 1 1 -4.43256e-08 0 0)" fill="#226A00" fill-opacity="0.4"/>
<rect width="5" height="16" transform="matrix(3.11055e-08 1 1 -6.1426e-08 27 168)" fill="#226A00" fill-opacity="0.4"/>
<rect width="6" height="43" transform="matrix(6.4512e-08 1 1 -4.43256e-08 0 120)" fill="#226A00" fill-opacity="0.4"/>
<rect width="6" height="43" transform="matrix(6.4512e-08 1 1 -4.43256e-08 0 60)" fill="#226A00" fill-opacity="0.4"/>
<rect x="141" y="180" width="11.3242" height="97.9993" transform="rotate(90 141 180)" fill="#226A00" fill-opacity="0.4"/>
<rect x="79" y="207.498" width="10.1842" height="36" transform="rotate(90 79 207.498)" fill="#226A00" fill-opacity="0.4"/>
<rect x="79" y="234.994" width="10.1842" height="36" transform="rotate(90 79 234.994)" fill="#226A00" fill-opacity="0.4"/>
<rect x="79" y="261.473" width="11.2026" height="36" transform="rotate(90 79 261.473)" fill="#226A00" fill-opacity="0.4"/>
<rect x="79" y="288.971" width="11.2026" height="36" transform="rotate(90 79 288.971)" fill="#226A00" fill-opacity="0.4"/>
<rect x="141" y="315.449" width="11.2026" height="98" transform="rotate(90 141 315.449)" fill="#226A00" fill-opacity="0.4"/>
</svg>
