<svg width="141" height="391" viewBox="0 0 141 391" fill="none" xmlns="http://www.w3.org/2000/svg">
<rect x="141" width="11.3242" height="97.9993" transform="rotate(90 141 0)" fill="#226A00" fill-opacity="0.4"/>
<rect x="79" y="27.498" width="10.1842" height="36" transform="rotate(90 79 27.498)" fill="#226A00" fill-opacity="0.4"/>
<rect x="79" y="54.9941" width="10.1842" height="36" transform="rotate(90 79 54.9941)" fill="#226A00" fill-opacity="0.4"/>
<rect x="79" y="81.4727" width="11.2026" height="36" transform="rotate(90 79 81.4727)" fill="#226A00" fill-opacity="0.4"/>
<rect x="79" y="108.971" width="11.2026" height="36" transform="rotate(90 79 108.971)" fill="#226A00" fill-opacity="0.4"/>
<rect width="5" height="16" transform="matrix(3.11055e-08 1 1 -6.1426e-08 27 162)" fill="#226A00" fill-opacity="0.4"/>
<rect width="4" height="16" transform="matrix(3.11055e-08 1 1 -6.1426e-08 27 174)" fill="#226A00" fill-opacity="0.4"/>
<rect width="4" height="16" transform="matrix(3.11055e-08 1 1 -6.1426e-08 27 186)" fill="#226A00" fill-opacity="0.4"/>
<rect width="4" height="16" transform="matrix(3.11055e-08 1 1 -6.1426e-08 27 198)" fill="#226A00" fill-opacity="0.4"/>
<rect x="141" y="135.449" width="11.2026" height="98" transform="rotate(90 141 135.449)" fill="#226A00" fill-opacity="0.4"/>
<rect width="5" height="43" transform="matrix(4.72373e-08 1 1 -5.38329e-08 0 210)" fill="#226A00" fill-opacity="0.4"/>
<rect width="4" height="16" transform="matrix(3.11055e-08 1 1 -6.1426e-08 27 222)" fill="#226A00" fill-opacity="0.4"/>
<rect width="4" height="16" transform="matrix(3.11055e-08 1 1 -6.1426e-08 27 234)" fill="#226A00" fill-opacity="0.4"/>
<rect width="4" height="16" transform="matrix(3.11055e-08 1 1 -6.1426e-08 27 246)" fill="#226A00" fill-opacity="0.4"/>
<rect width="5" height="16" transform="matrix(3.11055e-08 1 1 -6.1426e-08 27 257)" fill="#226A00" fill-opacity="0.4"/>
<rect width="5" height="16" transform="matrix(3.11055e-08 1 1 -6.1426e-08 27 280)" fill="#226A00" fill-opacity="0.4"/>
<rect width="5" height="16" transform="matrix(3.11055e-08 1 1 -6.1426e-08 27 292)" fill="#226A00" fill-opacity="0.4"/>
<rect width="5" height="16" transform="matrix(3.11055e-08 1 1 -6.1426e-08 27 304)" fill="#226A00" fill-opacity="0.4"/>
<rect width="5" height="16" transform="matrix(3.11055e-08 1 1 -6.1426e-08 27 316)" fill="#226A00" fill-opacity="0.4"/>
<rect width="6" height="43" transform="matrix(6.4512e-08 1 1 -4.43256e-08 0 268)" fill="#226A00" fill-opacity="0.4"/>
<rect width="5" height="43" transform="matrix(4.72373e-08 1 1 -5.38329e-08 0 328)" fill="#226A00" fill-opacity="0.4"/>
<rect width="5" height="16" transform="matrix(3.11055e-08 1 1 -6.1426e-08 27 338)" fill="#226A00" fill-opacity="0.4"/>
<rect width="5" height="16" transform="matrix(3.11055e-08 1 1 -6.1426e-08 27 350)" fill="#226A00" fill-opacity="0.4"/>
<rect width="5" height="16" transform="matrix(3.11055e-08 1 1 -6.1426e-08 27 362)" fill="#226A00" fill-opacity="0.4"/>
<rect width="5" height="16" transform="matrix(3.11055e-08 1 1 -6.1426e-08 27 374)" fill="#226A00" fill-opacity="0.4"/>
<rect width="5" height="43" transform="matrix(4.72373e-08 1 1 -5.38329e-08 0 386)" fill="#226A00" fill-opacity="0.4"/>
</svg>
