<svg width="141" height="393" viewBox="0 0 141 393" fill="none" xmlns="http://www.w3.org/2000/svg">
<rect x="141" y="121.5" width="11.3242" height="97.9993" transform="rotate(90 141 121.5)" fill="#226A00" fill-opacity="0.4"/>
<rect x="79" y="148.998" width="10.1842" height="36" transform="rotate(90 79 148.998)" fill="#226A00" fill-opacity="0.4"/>
<rect x="79" y="176.494" width="10.1842" height="36" transform="rotate(90 79 176.494)" fill="#226A00" fill-opacity="0.4"/>
<rect x="79" y="202.973" width="11.2026" height="36" transform="rotate(90 79 202.973)" fill="#226A00" fill-opacity="0.4"/>
<rect x="79" y="230.471" width="11.2026" height="36" transform="rotate(90 79 230.471)" fill="#226A00" fill-opacity="0.4"/>
<rect x="141" y="256.949" width="11.2026" height="98" transform="rotate(90 141 256.949)" fill="#226A00" fill-opacity="0.4"/>
<rect width="5" height="16" transform="matrix(3.11055e-08 1 1 -6.1426e-08 27 276.5)" fill="#226A00" fill-opacity="0.4"/>
<rect width="4" height="16" transform="matrix(3.11055e-08 1 1 -6.1426e-08 27 289.5)" fill="#226A00" fill-opacity="0.4"/>
<rect width="4" height="16" transform="matrix(3.11055e-08 1 1 -6.1426e-08 27 301.5)" fill="#226A00" fill-opacity="0.4"/>
<rect width="4" height="16" transform="matrix(3.11055e-08 1 1 -6.1426e-08 27 313.5)" fill="#226A00" fill-opacity="0.4"/>
<rect width="5" height="43" transform="matrix(4.72373e-08 1 1 -5.38329e-08 0 325.5)" fill="#226A00" fill-opacity="0.4"/>
<rect width="5" height="16" transform="matrix(3.11055e-08 1 1 -6.1426e-08 27 338.5)" fill="#226A00" fill-opacity="0.4"/>
<rect width="4" height="16" transform="matrix(3.11055e-08 1 1 -6.1426e-08 27 351.5)" fill="#226A00" fill-opacity="0.4"/>
<rect width="4" height="16" transform="matrix(3.11055e-08 1 1 -6.1426e-08 27 363.5)" fill="#226A00" fill-opacity="0.4"/>
<rect width="4" height="16" transform="matrix(3.11055e-08 1 1 -6.1426e-08 27 375.5)" fill="#226A00" fill-opacity="0.4"/>
<rect width="5" height="43" transform="matrix(4.72373e-08 1 1 -5.38329e-08 0 387.5)" fill="#226A00" fill-opacity="0.4"/>
<rect width="5" height="16" transform="matrix(3.11055e-08 1 1 -6.1426e-08 27 12.5)" fill="#226A00" fill-opacity="0.4"/>
<rect width="5" height="16" transform="matrix(3.11055e-08 1 1 -6.1426e-08 27 24.5)" fill="#226A00" fill-opacity="0.4"/>
<rect width="5" height="16" transform="matrix(3.11055e-08 1 1 -6.1426e-08 27 36.5)" fill="#226A00" fill-opacity="0.4"/>
<rect width="5" height="16" transform="matrix(3.11055e-08 1 1 -6.1426e-08 27 48.5)" fill="#226A00" fill-opacity="0.4"/>
<rect width="6" height="43" transform="matrix(6.4512e-08 1 1 -4.43256e-08 0 0.5)" fill="#226A00" fill-opacity="0.4"/>
<rect width="5" height="16" transform="matrix(3.11055e-08 1 1 -6.1426e-08 27 72.5)" fill="#226A00" fill-opacity="0.4"/>
<rect width="5" height="16" transform="matrix(3.11055e-08 1 1 -6.1426e-08 27 84.5)" fill="#226A00" fill-opacity="0.4"/>
<rect width="5" height="16" transform="matrix(3.11055e-08 1 1 -6.1426e-08 27 96.5)" fill="#226A00" fill-opacity="0.4"/>
<rect width="5" height="16" transform="matrix(3.11055e-08 1 1 -6.1426e-08 27 108.5)" fill="#226A00" fill-opacity="0.4"/>
<rect width="6" height="43" transform="matrix(6.4512e-08 1 1 -4.43256e-08 0 60.5)" fill="#226A00" fill-opacity="0.4"/>
</svg>
