<svg width="141" height="398" viewBox="0 0 141 398" fill="none" xmlns="http://www.w3.org/2000/svg">
<rect x="141" y="61" width="11.3242" height="97.9993" transform="rotate(90 141 61)" fill="#226A00" fill-opacity="0.4"/>
<rect x="79" y="88.498" width="10.1842" height="36" transform="rotate(90 79 88.498)" fill="#226A00" fill-opacity="0.4"/>
<rect x="79" y="115.994" width="10.1842" height="36" transform="rotate(90 79 115.994)" fill="#226A00" fill-opacity="0.4"/>
<rect x="79" y="142.473" width="11.2026" height="36" transform="rotate(90 79 142.473)" fill="#226A00" fill-opacity="0.4"/>
<rect x="79" y="169.971" width="11.2026" height="36" transform="rotate(90 79 169.971)" fill="#226A00" fill-opacity="0.4"/>
<rect width="5" height="16" transform="matrix(3.11055e-08 1 1 -6.1426e-08 27 223)" fill="#226A00" fill-opacity="0.4"/>
<rect width="4" height="16" transform="matrix(3.11055e-08 1 1 -6.1426e-08 27 235)" fill="#226A00" fill-opacity="0.4"/>
<rect width="4" height="16" transform="matrix(3.11055e-08 1 1 -6.1426e-08 27 247)" fill="#226A00" fill-opacity="0.4"/>
<rect width="4" height="16" transform="matrix(3.11055e-08 1 1 -6.1426e-08 27 259)" fill="#226A00" fill-opacity="0.4"/>
<rect x="141" y="196.449" width="11.2026" height="98" transform="rotate(90 141 196.449)" fill="#226A00" fill-opacity="0.4"/>
<rect width="5" height="43" transform="matrix(4.72373e-08 1 1 -5.38329e-08 0 271)" fill="#226A00" fill-opacity="0.4"/>
<rect width="5" height="16" transform="matrix(3.11055e-08 1 1 -6.1426e-08 27 345)" fill="#226A00" fill-opacity="0.4"/>
<rect width="4" height="16" transform="matrix(3.11055e-08 1 1 -6.1426e-08 27 357)" fill="#226A00" fill-opacity="0.4"/>
<rect width="4" height="16" transform="matrix(3.11055e-08 1 1 -6.1426e-08 27 369)" fill="#226A00" fill-opacity="0.4"/>
<rect width="4" height="16" transform="matrix(3.11055e-08 1 1 -6.1426e-08 27 381)" fill="#226A00" fill-opacity="0.4"/>
<rect width="5" height="43" transform="matrix(4.72373e-08 1 1 -5.38329e-08 0 393)" fill="#226A00" fill-opacity="0.4"/>
<rect width="4" height="16" transform="matrix(3.11055e-08 1 1 -6.1426e-08 27 283)" fill="#226A00" fill-opacity="0.4"/>
<rect width="4" height="16" transform="matrix(3.11055e-08 1 1 -6.1426e-08 27 295)" fill="#226A00" fill-opacity="0.4"/>
<rect width="4" height="16" transform="matrix(3.11055e-08 1 1 -6.1426e-08 27 307)" fill="#226A00" fill-opacity="0.4"/>
<rect width="5" height="16" transform="matrix(3.11055e-08 1 1 -6.1426e-08 27 319)" fill="#226A00" fill-opacity="0.4"/>
<rect width="6" height="43" transform="matrix(6.4512e-08 1 1 -4.43256e-08 0 332)" fill="#226A00" fill-opacity="0.4"/>
<rect width="5" height="16" transform="matrix(3.11055e-08 1 1 -6.1426e-08 27 12)" fill="#226A00" fill-opacity="0.4"/>
<rect width="5" height="16" transform="matrix(3.11055e-08 1 1 -6.1426e-08 27 24)" fill="#226A00" fill-opacity="0.4"/>
<rect width="5" height="16" transform="matrix(3.11055e-08 1 1 -6.1426e-08 27 36)" fill="#226A00" fill-opacity="0.4"/>
<rect width="5" height="16" transform="matrix(3.11055e-08 1 1 -6.1426e-08 27 48)" fill="#226A00" fill-opacity="0.4"/>
<rect width="6" height="43" transform="matrix(6.4512e-08 1 1 -4.43256e-08 0 0)" fill="#226A00" fill-opacity="0.4"/>
</svg>
