<svg width="32" height="32" viewBox="0 0 32 32" fill="none" xmlns="http://www.w3.org/2000/svg">
<path fill-rule="evenodd" clip-rule="evenodd" d="M16 32C7.1648 32 0 24.8352 0 16C0 7.1648 7.1648 0 16 0C24.8352 0 32 7.1648 32 16C32 24.8352 24.8352 32 16 32ZM5.89383 12.3847H10.1466V26.0711H5.89383V12.3847ZM8.02183 5.58154C9.38183 5.58154 10.4858 6.68554 10.4858 8.04874C10.4858 9.41194 9.38183 10.5159 8.02183 10.5159C6.65863 10.5159 5.55463 9.41194 5.55463 8.04874C5.55143 6.68874 6.65543 5.58154 8.02183 5.58154ZM16.8958 12.3903H12.8158V26.0799H17.0654V19.3087C17.0654 17.5231 17.4046 15.7951 19.619 15.7951C21.8014 15.7951 21.8302 17.8335 21.8302 19.4238V26.0767H26.083V18.5662C26.083 14.883 25.2862 12.0479 20.979 12.0479C18.9054 12.0479 17.5198 13.1839 16.9534 14.2591H16.8958V12.3903Z" fill="white"/>
</svg>
