<svg width="43" height="42" viewBox="0 0 43 42" fill="none" xmlns="http://www.w3.org/2000/svg">
<path d="M21.4396 41.5921C33.2804 41.5921 42.8793 32.4257 42.8793 21.1183C42.8793 9.81096 33.2804 0.644531 21.4396 0.644531C9.59885 0.644531 0 9.81096 0 21.1183C0 32.4257 9.59885 41.5921 21.4396 41.5921Z" fill="#d90414"/>
<path d="M34.2484 22.7685V31.2094H29.1237V23.3342C29.1237 21.3568 28.3838 20.0064 26.5284 20.0064C25.1124 20.0064 24.2712 20.9156 23.8997 21.7959C23.7648 22.1105 23.73 22.5473 23.73 22.9886V31.209H18.605C18.605 31.209 18.6738 17.871 18.605 16.4904H23.7304V18.5762C23.7201 18.5926 23.7056 18.6086 23.6964 18.6243H23.7304V18.5762C24.4115 17.5754 25.626 16.1448 28.3491 16.1448C31.7207 16.1448 34.2484 18.2484 34.2484 22.7685ZM13.2437 9.39551C11.4907 9.39551 10.3438 10.4944 10.3438 11.9382C10.3438 13.3513 11.4574 14.482 13.1765 14.482H13.2097C14.9972 14.482 16.1086 13.3513 16.1086 11.9382C16.0746 10.4944 14.9972 9.39551 13.2437 9.39551ZM10.6483 31.2094H15.7715V16.4904H10.6483V31.2094Z" fill="white"/>
</svg>
