<svg width="43" height="43" viewBox="0 0 43 43" fill="none" xmlns="http://www.w3.org/2000/svg">
<path d="M27.8294 11.8926H15.0492C13.0092 11.8926 11.3496 13.4921 11.3496 15.458V27.7751C11.3496 29.7411 13.0092 31.3411 15.0492 31.3411H27.8294C29.8693 31.3411 31.5294 29.7416 31.5294 27.7751V15.458C31.5294 13.4921 29.8698 11.8926 27.8294 11.8926ZM21.4393 28.0192C17.7765 28.0192 14.7964 25.1471 14.7964 21.6166C14.7964 18.0866 17.7765 15.2145 21.4393 15.2145C25.1025 15.2145 28.0826 18.0866 28.0826 21.6166C28.0826 25.1466 25.102 28.0192 21.4393 28.0192ZM28.2961 16.5382C27.4291 16.5382 26.7239 15.8586 26.7239 15.0234C26.7239 14.1882 27.4291 13.5086 28.2961 13.5086C29.1627 13.5086 29.8679 14.1882 29.8679 15.0234C29.8679 15.8586 29.1627 16.5382 28.2961 16.5382Z" fill="#d90414"/>
<path d="M21.4397 17.9219C19.3253 17.9219 17.6035 19.5803 17.6035 21.6181C17.6035 23.6568 19.3253 25.3157 21.4397 25.3157C23.5551 25.3157 25.2754 23.6568 25.2754 21.6181C25.2754 19.5808 23.5546 17.9219 21.4397 17.9219Z" fill="#d90414"/>
<path d="M21.44 0.898438C9.59949 0.898438 0 10.1501 0 21.5616C0 32.973 9.59949 42.2247 21.44 42.2247C33.2805 42.2247 42.88 32.973 42.88 21.5616C42.88 10.1501 33.2805 0.898438 21.44 0.898438ZM34.3368 27.7758C34.3368 31.234 31.4183 34.0467 27.8301 34.0467H15.0499C11.4622 34.0467 8.54323 31.234 8.54323 27.7758V15.4587C8.54323 12.001 11.4622 9.18781 15.0499 9.18781H27.8301C31.4183 9.18781 34.3368 12.001 34.3368 15.4587V27.7758Z" fill="#d90414"/>
</svg>
