<svg width="43" height="42" viewBox="0 0 43 42" fill="none" xmlns="http://www.w3.org/2000/svg">
<path d="M21.4396 41.4546C33.2803 41.4546 42.8792 32.2881 42.8792 20.9807C42.8792 9.6733 33.2803 0.506836 21.4396 0.506836C9.59883 0.506836 0 9.6733 0 20.9807C0 32.2881 9.59883 41.4546 21.4396 41.4546Z" fill="#d90414"/>
<path d="M34.5704 15.2207C33.6517 15.6097 32.6633 15.8729 31.6269 15.9904C32.6851 15.3849 33.4973 14.4269 33.8806 13.2834C32.8904 13.8444 31.7931 14.2513 30.6263 14.4707C29.6915 13.5199 28.3596 12.9258 26.8848 12.9258C24.0551 12.9258 21.7601 15.1174 21.7601 17.8196C21.7601 18.2032 21.8056 18.5765 21.8935 18.9349C17.6344 18.7309 13.8581 16.7827 11.3303 13.821C10.8893 14.5437 10.6363 15.3849 10.6363 16.2816C10.6363 17.9791 11.5417 19.4776 12.916 20.355C12.0764 20.3298 11.2856 20.1098 10.595 19.7422C10.5946 19.763 10.5946 19.7838 10.5946 19.8043C10.5946 22.1755 12.3619 24.1532 14.7058 24.6025C14.2762 24.7149 13.8225 24.7744 13.3559 24.7744C13.0249 24.7744 12.7043 24.7441 12.3917 24.6872C13.0437 26.631 14.9358 28.0459 17.1789 28.0857C15.4247 29.3985 13.2153 30.1806 10.8136 30.1806C10.4009 30.1806 9.99194 30.1576 9.5918 30.112C11.8585 31.5011 14.5529 32.3109 17.4468 32.3109C26.8729 32.3109 32.0278 24.8539 32.0278 18.3864C32.0278 18.1743 32.0228 17.963 32.0129 17.7535C33.015 17.0638 33.8837 16.2021 34.5704 15.2207Z" fill="#FAFAFA"/>
</svg>
