<svg width="42" height="42" viewBox="0 0 42 42" fill="none" xmlns="http://www.w3.org/2000/svg">
<circle cx="21" cy="21" r="21" fill="#d90414"/>
<path fill-rule="evenodd" clip-rule="evenodd" d="M30.5669 10.4419C28.0269 7.90186 24.6519 6.5 21.0571 6.5C13.6479 6.5 7.61426 12.5293 7.61426 19.9385C7.60986 22.3071 8.22949 24.6187 9.40723 26.6577L7.5 33.623L14.6279 31.751C16.5879 32.8232 18.8027 33.3857 21.0527 33.3901H21.0571C28.4663 33.3901 34.4956 27.3608 34.5 19.9473C34.5 16.3569 33.1025 12.9819 30.5669 10.4419ZM21.0571 31.1182H21.0527C19.0488 31.1182 17.0801 30.5776 15.3662 29.5625L14.9575 29.3208L10.7256 30.4282L11.855 26.3062L11.5913 25.8843C10.4707 24.1045 9.88184 22.0479 9.88184 19.9385C9.88184 13.7817 14.896 8.77197 21.0615 8.77197C24.0454 8.77197 26.8491 9.93652 28.9585 12.0459C31.0679 14.1597 32.228 16.9634 32.228 19.9473C32.228 26.1084 27.2139 31.1182 21.0571 31.1182ZM27.1831 22.751C26.8491 22.584 25.1968 21.771 24.8892 21.6611C24.5815 21.5469 24.3574 21.4941 24.1333 21.8281C23.9092 22.1665 23.2676 22.9224 23.0698 23.1465C22.8765 23.3662 22.6787 23.397 22.3447 23.23C22.0063 23.063 20.9253 22.707 19.6421 21.5601C18.6445 20.6724 17.9678 19.5693 17.7744 19.2354C17.5767 18.897 17.7524 18.7168 17.9194 18.5498C18.0732 18.4004 18.2578 18.1587 18.4248 17.9609C18.5918 17.7676 18.6489 17.627 18.7632 17.4028C18.873 17.1787 18.8159 16.981 18.7324 16.814C18.6489 16.647 17.9766 14.9902 17.6953 14.3179C17.4229 13.6631 17.146 13.7554 16.9395 13.7422C16.7461 13.7334 16.522 13.7334 16.2979 13.7334C16.0737 13.7334 15.709 13.8169 15.4014 14.1553C15.0938 14.4893 14.228 15.3022 14.228 16.9546C14.228 18.6069 15.4321 20.2065 15.5991 20.4307C15.7661 20.6504 17.9678 24.043 21.3384 25.4976C22.1382 25.8447 22.7622 26.0513 23.25 26.2051C24.0542 26.46 24.7881 26.4248 25.3682 26.3413C26.0142 26.2446 27.3545 25.5283 27.6357 24.7417C27.9126 23.9595 27.9126 23.2871 27.8291 23.1465C27.7456 23.0059 27.5215 22.9224 27.1831 22.751Z" fill="white"/>
</svg>
