<svg width="42" height="42" viewBox="0 0 42 42" fill="none" xmlns="http://www.w3.org/2000/svg">
<circle cx="21" cy="21" r="21" fill="#d90414"/>
<path d="M30.8582 10.6391C30.4565 10.5965 30.02 10.6593 29.5814 10.8327C29.0376 11.0465 20.5174 14.6306 12.575 17.9741L9.95068 19.0786C8.93448 19.4906 8.42139 20.1608 8.42139 21.0634C8.42139 21.6953 8.68884 22.5525 9.96484 23.0576L14.3946 24.8323C14.7777 25.9815 15.6673 28.6496 15.8909 29.3589C16.0238 29.7794 16.3595 30.8387 17.2078 31.0864C17.3818 31.1456 17.5633 31.1761 17.7482 31.1761C18.2835 31.1761 18.6689 30.927 18.8574 30.782L21.6729 28.4007L25.0926 31.5631C25.2243 31.6973 25.9215 32.375 26.8579 32.375C28.0264 32.375 28.9127 31.4023 29.0976 30.461C29.1979 29.945 32.496 13.3885 32.496 13.3909C32.7921 12.063 32.2598 11.3741 31.9178 11.0805C31.6248 10.8297 31.2598 10.6817 30.8582 10.6391ZM30.0581 13.2493C29.6026 15.5331 27.1193 27.9987 26.7423 29.7955L21.7437 25.1722L18.3524 28.0443L19.2917 24.3698C19.2917 24.3698 25.7714 17.8108 26.1617 17.4289C26.4759 17.1232 26.5417 17.0161 26.5417 16.9097C26.5417 16.7684 26.4689 16.6666 26.3009 16.6666C26.1499 16.6666 25.9448 16.8114 25.836 16.8791C24.4545 17.7404 18.5716 21.0919 15.6761 22.739L11.4753 21.061L13.5143 20.2043C18.7089 18.0172 27.9604 14.1217 30.0581 13.2493Z" fill="white"/>
</svg>
