<svg width="32" height="32" viewBox="0 0 32 32" fill="none" xmlns="http://www.w3.org/2000/svg">
<path fill-rule="evenodd" clip-rule="evenodd" d="M15.6028 31.9952C15.7348 31.9984 15.8672 32 16 32C16.1328 32 16.2652 31.9984 16.3972 31.9952H15.6028ZM15.1696 31.9788C6.7202 31.5466 0 24.5567 0 16C0 7.1648 7.1648 0 16 0C24.8352 0 32 7.1648 32 16C32 23.3969 26.9781 29.623 20.1584 31.4541V19.6016H24.3184L24.9424 14.7728H20.1584V11.688C20.1584 10.2896 20.5456 9.33596 22.552 9.33596H25.1088V5.01916C24.6672 4.96156 23.1472 4.83036 21.3808 4.83036C17.6944 4.83036 15.1696 7.07996 15.1696 11.2144V14.776H11V19.6048H15.1696V31.9788Z" fill="white"/>
</svg>
