<svg width="32" height="32" viewBox="0 0 32 32" fill="none" xmlns="http://www.w3.org/2000/svg">
<path fill-rule="evenodd" clip-rule="evenodd" d="M32 16C32 7.1648 24.8352 0 16 0C7.1648 0 0 7.1648 0 16C0 24.8352 7.1648 32 16 32C24.8352 32 32 24.8352 32 16ZM23.9651 12.451C23.9651 17.875 19.8339 24.1278 12.2883 24.1278C10.0611 24.1278 7.87545 23.4878 6.00665 22.2814C6.32985 22.323 6.65625 22.3422 6.98265 22.3422C8.82905 22.3454 10.6243 21.7246 12.0771 20.5822C10.3203 20.547 8.78105 19.4014 8.24345 17.731C8.85785 17.8494 9.49145 17.8238 10.0963 17.6606C8.17945 17.2734 6.80345 15.5902 6.80345 13.6382V13.587C7.37305 13.9038 8.01305 14.0798 8.66585 14.099C6.86105 12.8926 6.30745 10.4958 7.39545 8.62057C9.47865 11.1838 12.5539 12.7422 15.8531 12.9086C15.5235 11.4846 15.9747 9.99016 17.0403 8.98857C18.6915 7.43657 21.2899 7.51657 22.8451 9.16777C23.7635 8.98857 24.6434 8.64937 25.4499 8.17257C25.1427 9.12296 24.5027 9.92937 23.6451 10.4414C24.4579 10.3454 25.2515 10.1278 26.0002 9.79497C25.4499 10.6206 24.7555 11.3374 23.9523 11.9198C23.9651 12.0958 23.9651 12.275 23.9651 12.451Z" fill="white"/>
</svg>
