<svg width="32" height="32" viewBox="0 0 32 32" fill="none" xmlns="http://www.w3.org/2000/svg">
<path fill-rule="evenodd" clip-rule="evenodd" d="M0 16C0 24.8352 7.1648 32 16 32C24.8352 32 32 24.8352 32 16C32 7.1648 24.8352 0 16 0C7.1648 0 0 7.1648 0 16ZM24.3036 8.95581C25.2188 9.20221 25.9388 9.92541 26.182 10.847C26.6236 12.5142 26.6236 15.9958 26.6236 15.9958C26.6236 15.9958 26.6236 19.4774 26.1788 21.1446C25.9356 22.0662 25.2156 22.7894 24.3004 23.0358C22.646 23.4838 15.9996 23.4838 15.9996 23.4838C15.9996 23.4838 9.35641 23.4838 7.69881 23.0358C6.78361 22.7894 6.06361 22.0662 5.82041 21.1446C5.37561 19.4774 5.37561 15.9958 5.37561 15.9958C5.37561 15.9958 5.37561 12.5142 5.82361 10.847C6.06681 9.92541 6.78681 9.20221 7.70201 8.95581C9.35641 8.50781 16.0028 8.50781 16.0028 8.50781C16.0028 8.50781 22.646 8.50781 24.3036 8.95581ZM19.3788 15.9958L13.8268 12.8374V19.1542L19.3788 15.9958Z" fill="white"/>
</svg>
