<svg width="32" height="32" viewBox="0 0 32 32" fill="none" xmlns="http://www.w3.org/2000/svg">
<path fill-rule="evenodd" clip-rule="evenodd" d="M0 16C0 24.8352 7.1648 32 16 32C24.8352 32 32 24.8352 32 16C32 7.1648 24.8352 0 16 0C7.1648 0 0 7.1648 0 16ZM20.4116 7.10915C19.2596 7.05475 18.914 7.04515 15.9988 7.04515C13.0836 7.04515 12.738 7.05475 11.586 7.10915C10.5204 7.16035 9.94118 7.33635 9.55717 7.48675C9.04838 7.68515 8.68357 7.92195 8.30277 8.30275C7.92197 8.68355 7.68517 9.04835 7.48677 9.55715C7.33637 9.94115 7.15717 10.5203 7.10917 11.5859C7.05477 12.7379 7.04517 13.0835 7.04517 15.9987C7.04517 18.9139 7.05797 19.2596 7.10917 20.4115C7.16037 21.4771 7.33637 22.0563 7.48677 22.4403C7.68517 22.9491 7.92197 23.3139 8.30277 23.6947C8.68357 24.0755 9.04838 24.3123 9.55717 24.5107C9.94118 24.6611 10.5204 24.8403 11.586 24.8883C12.738 24.9427 13.0836 24.9523 15.9988 24.9523C18.914 24.9523 19.2596 24.9395 20.4116 24.8883C21.4772 24.8371 22.0564 24.6611 22.4404 24.5107C22.9492 24.3123 23.314 24.0755 23.6948 23.6947C24.0756 23.3139 24.3124 22.9491 24.5108 22.4403C24.6612 22.0563 24.8404 21.4771 24.8884 20.4115C24.9428 19.2596 24.9524 18.9139 24.9524 15.9987C24.9524 13.0835 24.9396 12.7379 24.8884 11.5859C24.8372 10.5203 24.6612 9.94115 24.5108 9.55715C24.3124 9.04835 24.0756 8.68355 23.6948 8.30275C23.314 7.92195 22.9492 7.68515 22.4404 7.48675C22.0564 7.33635 21.4772 7.15715 20.4116 7.10915ZM11.4964 5.14435C12.6612 5.08995 13.0324 5.07715 15.9988 5.07715C18.9652 5.07715 19.3364 5.08995 20.498 5.14115C21.6628 5.19555 22.4564 5.38115 23.1508 5.64995C23.8708 5.93155 24.4788 6.30275 25.0868 6.91075C25.6948 7.51555 26.0692 8.12675 26.3476 8.84035C26.6196 9.53795 26.802 10.3315 26.8564 11.4931C26.9108 12.6579 26.9236 13.0291 26.9236 15.9955C26.9236 18.962 26.9108 19.3331 26.8564 20.4979C26.802 21.6627 26.6164 22.4563 26.3476 23.1507C26.066 23.8707 25.6948 24.4787 25.0868 25.0867C24.482 25.6947 23.8708 26.0691 23.1572 26.3475C22.4596 26.6196 21.666 26.8019 20.5044 26.8563C19.3396 26.9107 18.9684 26.9235 16.002 26.9235C13.0356 26.9235 12.6644 26.9107 11.4996 26.8563C10.3348 26.8019 9.54117 26.6164 8.84678 26.3475C8.12677 26.066 7.51877 25.6947 6.91077 25.0867C6.30277 24.4819 5.92837 23.8707 5.64997 23.1571C5.37797 22.4595 5.19557 21.6659 5.14117 20.5043C5.08677 19.3395 5.07397 18.9683 5.07397 16.0019C5.07397 13.0356 5.08677 12.6643 5.14117 11.4995C5.19557 10.3347 5.38117 9.54115 5.64997 8.84675C5.93157 8.12675 6.30277 7.51875 6.91077 6.91075C7.51557 6.30275 8.12677 5.92835 8.84357 5.65315C9.54117 5.38115 10.3348 5.19875 11.4964 5.14435ZM15.9998 10.3887C12.9022 10.3887 10.3902 12.9007 10.3902 15.9983C10.3902 19.0959 12.9022 21.6079 15.9998 21.6079C19.0974 21.6079 21.6094 19.0959 21.6094 15.9983C21.6094 12.9007 19.0974 10.3887 15.9998 10.3887ZM15.9998 19.6399C13.9902 19.6399 12.3582 18.0111 12.3582 15.9983C12.3582 13.9855 13.9902 12.3567 15.9998 12.3567C18.0094 12.3567 19.6414 13.9855 19.6414 15.9983C19.6414 18.0111 18.0094 19.6399 15.9998 19.6399ZM23.1419 10.166C23.1419 10.8906 22.5544 11.478 21.8299 11.478C21.1053 11.478 20.5179 10.8906 20.5179 10.166C20.5179 9.44141 21.1053 8.854 21.8299 8.854C22.5544 8.854 23.1419 9.44141 23.1419 10.166Z" fill="white"/>
</svg>
