<svg width="57" height="36" viewBox="0 0 57 36" fill="none" xmlns="http://www.w3.org/2000/svg">
<path d="M31.2976 17.5365L33.8311 17.8034C33.8311 17.8034 33.8352 17.8039 33.8393 17.8043C34.4799 17.8758 34.9478 18.4345 34.8845 19.0549C34.8608 19.2926 34.7966 19.5217 34.6968 19.737L35.0829 19.9469C35.139 19.8677 35.2215 19.8114 35.3194 19.7846C35.3748 19.769 35.4309 19.7653 35.486 19.7714C35.5431 19.7778 35.5969 19.7957 35.6497 19.8235L37.1336 20.6286C37.3443 20.7415 37.4197 20.9981 37.3048 21.1998L37.155 21.4571C37.0402 21.6587 36.7743 21.7303 36.5658 21.6157L35.0819 20.8106C34.885 20.7033 34.8049 20.4719 34.8921 20.2771L34.5059 20.0691C34.3787 20.2515 34.2226 20.4148 34.0423 20.5536L34.0175 20.5727C33.7676 20.7632 33.4572 20.8457 33.1396 20.8043C32.8219 20.7629 32.5418 20.6045 32.3499 20.3567L30.8093 18.3816C30.6752 18.2097 30.6601 17.9876 30.7671 17.8009C30.8741 17.6143 31.0791 17.5141 31.2976 17.5365ZM35.2727 20.4804L36.7566 21.2855C36.7625 21.2882 36.7666 21.2886 36.7706 21.2891C36.7768 21.2898 36.7831 21.2885 36.7854 21.2867C36.7917 21.2855 36.8025 21.2807 36.8099 21.2696L36.9577 21.0121C36.968 20.9934 36.7832 21.3444 36.7657 21.3345L35.2727 20.4804C35.2611 20.4732 35.4365 20.1512 35.4281 20.1522C35.4218 20.1535 35.4109 20.1583 35.4035 20.1693L35.5029 20.4465L35.2558 20.4269C35.4243 20.524 35.2531 20.4703 35.2727 20.4804ZM31.1233 18.1525L32.6638 20.1276C32.7925 20.2929 32.9794 20.3972 33.1891 20.4246C33.3988 20.452 33.607 20.3977 33.7715 20.2711L33.7963 20.2521C33.936 20.1445 34.057 20.019 34.1589 19.8795L33.5019 19.5222C33.4064 19.4698 33.3714 19.3547 33.4247 19.2633C33.4632 19.1941 33.5413 19.1592 33.6189 19.1678C33.6433 19.1706 33.6694 19.1774 33.6926 19.192L34.3517 19.5495C34.4258 19.381 34.4764 19.2 34.4946 19.0134C34.5371 18.6031 34.2266 18.2308 33.8002 18.1832L33.7961 18.1828L31.2626 17.9158C31.1728 17.9058 31.1272 17.9643 31.114 17.9906C31.0947 18.0162 31.0669 18.0826 31.1233 18.1525Z" fill="#525252"/>
<path fill-rule="evenodd" clip-rule="evenodd" d="M8.19532 14.6423H4.74108V13.6355H28.6364V18.3075H30.0851V22.9795H35.1197V23.9863H31.2704V26.9841H41.1477L41.1476 34.9932H55.7961V36H3.29241V34.9932H4.24442V31.9954H0V30.9886H6.08818V27.9909H2.63393V26.9841H4.77121V23.9863H3.29241V22.9795H9.95656V19.3143H8.19532V14.6423ZM9.18863 14.6423V18.3075H13.6833V14.6423H9.18863ZM14.6766 14.6423V18.3075H21.5851V14.6423H14.6766ZM22.5784 14.6423V18.3075H27.6431V14.6423H22.5784ZM10.9499 19.3143V22.9795H12.498V19.3143H10.9499ZM13.4913 19.3143V22.9795H18.8195V19.3143H13.4913ZM19.8128 19.3143V22.9795H23.9556V19.3143H19.8128ZM24.9489 19.3143V22.9795H29.0918V19.3143H24.9489ZM5.76452 23.9863V26.9841H9.86412V23.9863H5.76452ZM10.8574 23.9863V26.9841H17.7659V23.9863H10.8574ZM18.7592 23.9863V26.9841H25.6677V23.9863H18.7592ZM26.661 23.9863V26.9841H30.2771V23.9863H26.661ZM7.08148 27.9909V30.9886H12.498L12.4981 27.9909H7.08148ZM13.4914 27.9909L13.4913 30.9886H21.5851V27.9909H13.4914ZM22.5784 27.9909V30.9886H32.2525V27.9909H22.5784ZM33.2458 27.9909V30.9886H40.1544V27.9909H33.2458ZM40.1543 31.9954H33.2458V34.9932H40.1543L40.1543 31.9954ZM32.2525 34.9932V31.9954H25.3441L25.344 34.9932H32.2525ZM24.3507 34.9932L24.3507 31.9954H17.4422L17.4423 34.9932H24.3507ZM16.449 34.9932L16.4489 31.9954H9.54046V34.9932H16.449ZM11.3561 34.9932V31.9954H5.23773V34.9932H11.3561Z" fill="#525252"/>
<path fill-rule="evenodd" clip-rule="evenodd" d="M49.0084 12.0373C49.2016 12.2686 49.1732 12.6148 48.945 12.8105C47.5751 13.9858 46.454 14.9957 45.5921 15.8816C44.7251 16.7728 44.1503 17.5089 43.8428 18.1333C43.5422 18.7437 43.5203 19.1954 43.6728 19.5801C43.8363 19.9925 44.2435 20.4417 45.0438 20.9339L45.3043 21.0942V34.9199C45.3043 35.2229 45.062 35.4686 44.763 35.4686C44.464 35.4686 44.2216 35.2229 44.2216 34.9199V21.7052C43.4743 21.2058 42.9301 20.6498 42.6682 19.9892C42.3659 19.2265 42.4827 18.4381 42.8741 17.6432C43.2586 16.8623 43.9293 16.0279 44.8212 15.1111C45.7183 14.189 46.8695 13.1533 48.2455 11.9729C48.4737 11.7772 48.8153 11.806 49.0084 12.0373Z" fill="#525252"/>
<path fill-rule="evenodd" clip-rule="evenodd" d="M51.8399 10.7233C52.1348 10.6733 52.4138 10.8751 52.4632 11.174C53.8175 19.3801 53.7466 24.8641 53.2694 34.9453C53.2551 35.248 53.0014 35.4816 52.7027 35.4671C52.4041 35.4526 52.1736 35.1954 52.188 34.8927C52.6642 24.8329 52.7302 19.4431 51.3953 11.355C51.346 11.0561 51.5451 10.7733 51.8399 10.7233Z" fill="#525252"/>
<path fill-rule="evenodd" clip-rule="evenodd" d="M49.1509 11.2931C51.9286 11.2931 54.1804 9.01072 54.1804 6.19524C54.1804 3.37977 51.9286 1.09737 49.1509 1.09737C46.3732 1.09737 44.1213 3.37977 44.1213 6.19524C44.1213 9.01072 46.3732 11.2931 49.1509 11.2931ZM49.1509 12.3905C52.5266 12.3905 55.2631 9.61678 55.2631 6.19524C55.2631 2.7737 52.5266 0 49.1509 0C45.7752 0 43.0387 2.7737 43.0387 6.19524C43.0387 9.61678 45.7752 12.3905 49.1509 12.3905Z" fill="#525252"/>
<path fill-rule="evenodd" clip-rule="evenodd" d="M48.888 7.04719C47.5408 5.82777 46.6027 4.06971 45.8504 1.27022L46.895 0.981844C47.6197 3.67876 48.4811 5.20756 49.6092 6.22868C50.7497 7.26102 52.2198 7.83049 54.3119 8.48672L53.9919 9.53505C51.9039 8.88014 50.2229 8.25539 48.888 7.04719Z" fill="#525252"/>
<path fill-rule="evenodd" clip-rule="evenodd" d="M52.3279 10.9397C52.5434 10.7296 52.8861 10.7363 53.0934 10.9546C53.4078 11.2859 53.9639 11.3779 54.5818 11.1669C55.1991 10.9562 55.6846 10.5024 55.826 10.023C56.1589 8.89394 55.5595 7.7604 54.5515 7.45507C54.265 7.3683 54.1022 7.06259 54.1878 6.77224C54.2734 6.4819 54.5751 6.31687 54.8615 6.40364C56.4865 6.89585 57.3539 8.67313 56.8633 10.3372C56.5929 11.2543 55.7712 11.9189 54.9274 12.2069C54.0843 12.4947 53.0256 12.4659 52.3132 11.7155C52.1059 11.4971 52.1125 11.1498 52.3279 10.9397Z" fill="#525252"/>
<path fill-rule="evenodd" clip-rule="evenodd" d="M49.8872 14.2918C50.1861 14.286 50.4331 14.5269 50.4387 14.8299C50.4939 17.7721 49.3685 20.6715 47.2706 22.4407C45.1435 24.2345 42.0961 24.7999 38.4876 23.1997C38.2137 23.0783 38.0888 22.7547 38.2087 22.4771C38.3285 22.1995 38.6477 22.0729 38.9216 22.1943C42.2032 23.6496 44.8049 23.0926 46.5781 21.5972C48.3804 20.0772 49.4064 17.5206 49.3563 14.8508C49.3506 14.5478 49.5883 14.2975 49.8872 14.2918Z" fill="#525252"/>
<path fill-rule="evenodd" clip-rule="evenodd" d="M36.4161 22.7929L38.5805 22.2306L38.7482 23.3609L36.5839 23.9232L36.4161 22.7929Z" fill="#525252"/>
<path fill-rule="evenodd" clip-rule="evenodd" d="M48.7033 12.0869C48.777 12.3806 48.6018 12.6792 48.3121 12.7539C45.8194 13.3965 43.9648 14.2489 42.1995 15.5667C40.422 16.8936 38.7153 18.7066 36.5333 21.3073C36.3396 21.5381 35.998 21.5661 35.7702 21.3698C35.5425 21.1735 35.5148 20.8272 35.7085 20.5964C37.9002 17.9842 39.6738 16.0893 41.5575 14.6831C43.4533 13.2679 45.4408 12.3618 48.0452 11.6904C48.3349 11.6157 48.6296 11.7932 48.7033 12.0869Z" fill="#525252"/>
<path d="M30.3787 22.9484H37.4903V27.7539H30.3787V22.9484Z" fill="#525252"/>
</svg>
