<svg width="50" height="50" viewBox="0 0 50 50" fill="none" xmlns="http://www.w3.org/2000/svg">
<path d="M24.3848 26.9263V27.6011V26.9263ZM25.6114 26.9585V27.6011V26.9585Z" fill="#d90414"/>
<path d="M48.3476 23.1815C45.4226 22.5172 45.3716 21.1543 45.2895 19.0882C45.2386 17.8259 45.182 16.3957 44.3818 15.0072C44.1594 14.6074 43.8553 14.2596 43.4895 13.9865C43.1238 13.7135 42.7047 13.5215 42.2598 13.4232C40.7237 13.0607 38.8829 13.6719 37.5421 14.2916C37.1845 7.64241 31.6921 2.34375 24.9929 2.34375C18.2758 2.34375 12.7731 7.67373 12.4438 14.3495C11.1049 13.7316 9.27063 13.1252 7.73831 13.4868C7.29325 13.5852 6.87399 13.7775 6.50821 14.0508C6.14243 14.3242 5.83843 14.6725 5.61628 15.0727C4.81615 16.4583 4.75954 17.8886 4.70953 19.1537C4.6265 21.2198 4.57272 22.5855 1.65056 23.247C1.52008 23.2765 1.40277 23.3481 1.31656 23.4509C1.23035 23.5537 1.17997 23.6821 1.17312 23.8165C1.14482 24.4011 1.59866 24.9554 2.52334 25.4593C3.69616 26.1009 5.35397 26.5327 6.958 26.6162C7.13539 26.6248 7.32409 26.6305 7.52413 26.6305C7.88058 26.6307 8.23679 26.612 8.59128 26.5745V29.7064H8.18649C7.66327 29.7081 7.16197 29.918 6.792 30.2901C6.42202 30.6623 6.2134 31.1665 6.21165 31.6928C6.21103 32.0656 6.31574 32.431 6.51359 32.7463C6.24794 32.9332 6.0322 33.1831 5.88547 33.4739C5.73874 33.7646 5.66554 34.0873 5.67235 34.4133C5.67916 34.7393 5.76577 35.0586 5.92452 35.3429C6.08326 35.6273 6.30925 35.8678 6.58247 36.0433C6.40561 36.3447 6.31111 36.6877 6.30855 37.0376C6.306 37.3876 6.39548 37.7319 6.56792 38.0359C6.74036 38.3398 6.98962 38.5924 7.29045 38.7682C7.59127 38.944 7.93295 39.0366 8.28085 39.0367H8.59411V41.9437C8.59398 42.0745 8.63524 42.2019 8.71192 42.3075C8.7886 42.4132 8.8967 42.4915 9.02059 42.5312L24.6372 47.5432C24.744 47.6188 24.8718 47.6583 25.0024 47.6562C25.0664 47.6565 25.1301 47.6466 25.1911 47.6267L40.9775 42.5597C41.1014 42.52 41.2095 42.4416 41.2862 42.336C41.3629 42.2304 41.4041 42.103 41.404 41.9722V38.9352H41.7144C42.0623 38.9351 42.404 38.8424 42.7048 38.6666C43.0057 38.4909 43.2549 38.2382 43.4274 37.9343C43.5998 37.6304 43.6893 37.286 43.6867 36.9361C43.6842 36.5862 43.5897 36.2431 43.4128 35.9418C43.686 35.7663 43.912 35.5257 44.0708 35.2414C44.2295 34.9571 44.3161 34.6378 44.3229 34.3118C44.3297 33.9858 44.2565 33.6631 44.1098 33.3723C43.9631 33.0815 43.7473 32.8316 43.4817 32.6447C43.6685 32.3443 43.772 31.9991 43.7813 31.6449C43.7907 31.2906 43.7056 30.9404 43.5349 30.6304C43.3641 30.3205 43.114 30.0622 42.8105 29.8823C42.5069 29.7025 42.1611 29.6076 41.8088 29.6077H41.4012V26.5099C41.7578 26.5483 42.1163 26.5673 42.4749 26.5669C42.6712 26.5669 42.859 26.5612 43.0411 26.5517C44.6451 26.4691 46.3038 26.0373 47.4757 25.3957C48.4004 24.8899 48.8552 24.3366 48.8269 23.7529C48.82 23.6181 48.7694 23.4892 48.6829 23.386C48.5963 23.2828 48.4785 23.211 48.3476 23.1815ZM25.0024 3.57754C27.925 3.58142 30.7335 4.71937 32.8427 6.75432C34.9519 8.78927 36.1993 11.5643 36.3249 14.5013C35.12 14.7557 33.9868 14.5962 32.9498 14.0202C29.9399 12.3507 28.6001 7.78857 28.5878 7.74301C28.5572 7.63593 28.4984 7.53916 28.4176 7.46295C28.3368 7.38674 28.2371 7.33392 28.1288 7.31009C28.0206 7.28626 27.908 7.2923 27.803 7.32758C27.6979 7.36286 27.6043 7.42606 27.532 7.51049C27.4556 7.5997 19.994 16.2125 13.6723 14.5251C13.792 11.5825 15.0379 8.80044 17.1493 6.76026C19.2608 4.72008 22.0745 3.57973 25.0024 3.57754ZM2.81678 24.2008C5.7814 23.2053 5.86254 21.1714 5.94274 19.2002C5.98898 18.0271 6.0371 16.8133 6.68437 15.6886C6.82338 15.4345 7.01502 15.2133 7.24633 15.0401C7.47764 14.8669 7.74323 14.7456 8.02515 14.6845C9.41971 14.3552 11.2738 15.1125 12.4598 15.7209C12.5481 17.2629 12.9192 18.7752 13.5543 20.1815C13.4825 20.8222 13.3291 21.4509 13.0976 22.0521L9.3914 20.8838C9.29955 20.8548 9.20218 20.8479 9.10718 20.8637C9.01219 20.8795 8.92223 20.9177 8.8446 20.9749C8.76696 21.0322 8.70383 21.1071 8.66031 21.1935C8.6168 21.2799 8.59411 21.3754 8.59411 21.4723V25.3369C6.16825 25.6472 3.77259 24.8149 2.81678 24.2008ZM8.18649 30.9392H11.7238C11.9219 30.9407 12.1115 31.0205 12.2516 31.1613C12.3918 31.3021 12.4713 31.4926 12.473 31.6919C12.473 31.7118 12.473 31.7327 12.473 31.7526C12.4721 31.7704 12.4702 31.7881 12.4674 31.8057C12.4674 31.8057 12.4674 31.8105 12.4674 31.8133C12.4678 31.8171 12.4678 31.8209 12.4674 31.8247C12.4674 31.8371 12.4674 31.8494 12.4598 31.8617C12.4561 31.8797 12.4514 31.8975 12.4457 31.9149C12.44 31.932 12.4343 31.9491 12.4277 31.9661C12.4142 31.9988 12.3984 32.0305 12.3806 32.061C12.373 32.0734 12.3664 32.0867 12.3579 32.0981C12.3414 32.1234 12.3234 32.1478 12.3041 32.1711C12.2937 32.1825 12.2843 32.1949 12.273 32.2053C12.2274 32.2537 12.1757 32.2958 12.1192 32.3306L12.0748 32.3553L12.0258 32.379C11.9328 32.4191 11.8326 32.4398 11.7314 32.4397H8.18649C8.08529 32.4398 7.98513 32.4191 7.89211 32.379L7.84587 32.3572C7.81302 32.3399 7.78148 32.3202 7.75152 32.2983L7.71189 32.2679L7.68547 32.2442C7.67811 32.2384 7.67118 32.232 7.66471 32.2252L7.64679 32.2062C7.63546 32.1958 7.62603 32.1835 7.61565 32.1721C7.59608 32.149 7.57811 32.1246 7.56187 32.099C7.55338 32.0876 7.54677 32.0743 7.53922 32.062C7.52136 32.0315 7.50559 31.9998 7.49204 31.9671C7.48544 31.95 7.47978 31.9329 7.47412 31.9158C7.46841 31.8984 7.46368 31.8807 7.45996 31.8627C7.45996 31.8503 7.4543 31.838 7.45242 31.8257C7.45199 31.8219 7.45199 31.8181 7.45242 31.8143C7.45242 31.8143 7.45242 31.8095 7.45242 31.8067C7.44954 31.7891 7.44765 31.7714 7.44675 31.7535C7.44675 31.7336 7.44675 31.7127 7.44675 31.6928C7.44745 31.4945 7.52523 31.3044 7.66347 31.1631C7.8017 31.0217 7.98942 30.9404 8.18649 30.9364V30.9392ZM6.89855 34.3692C6.89857 34.3052 6.90649 34.2414 6.92214 34.1794C6.92795 34.1555 6.93519 34.1321 6.94385 34.1091C6.94385 34.0977 6.95234 34.0864 6.95706 34.075C6.96661 34.0526 6.97732 34.0307 6.98914 34.0095C6.99829 33.9922 7.00837 33.9754 7.01933 33.9592L7.03443 33.9374C7.04546 33.9206 7.05743 33.9044 7.07028 33.889C7.08538 33.8709 7.10142 33.8529 7.1184 33.8358C7.13539 33.8187 7.15331 33.8026 7.17124 33.7874C7.18659 33.7745 7.20265 33.7624 7.21936 33.7513L7.24106 33.7362C7.25718 33.7251 7.27387 33.715 7.29107 33.7058C7.3122 33.6939 7.33393 33.6831 7.35617 33.6735L7.39014 33.6602C7.41295 33.6515 7.43627 33.6442 7.45996 33.6384C7.52165 33.6227 7.58504 33.6147 7.64867 33.6147H12.7032C12.9012 33.6164 13.0905 33.6963 13.2304 33.837C13.3704 33.9778 13.4498 34.1682 13.4515 34.3673C13.4518 34.4433 13.4403 34.5188 13.4175 34.5913C13.4108 34.615 13.4023 34.6382 13.392 34.6605C13.3826 34.6833 13.3722 34.7042 13.3609 34.726C13.3496 34.7479 13.3364 34.7678 13.3232 34.7877C13.3101 34.808 13.2956 34.8274 13.2798 34.8456C13.2497 34.8835 13.2155 34.9179 13.1778 34.9481C13.1597 34.964 13.1405 34.9786 13.1203 34.9918C13.1005 35.0051 13.0797 35.0174 13.059 35.0297C13.0382 35.0421 13.0165 35.0516 12.9939 35.0611C12.9712 35.0705 12.9486 35.0791 12.925 35.0867C12.8532 35.1092 12.7784 35.1208 12.7032 35.1208H7.64679C7.44904 35.1191 7.25986 35.0394 7.11994 34.8988C6.98002 34.7583 6.90053 34.5681 6.89855 34.3692ZM8.28368 37.801C8.11092 37.8016 7.94329 37.742 7.8093 37.6323C7.67531 37.5227 7.58324 37.3697 7.54876 37.1994C7.51428 37.0291 7.53952 36.8521 7.62018 36.6984C7.70084 36.5447 7.83194 36.4239 7.99118 36.3565H11.2936C11.4592 36.4289 11.5932 36.559 11.671 36.7229C11.6814 36.7447 11.6908 36.7675 11.6993 36.7903C11.761 36.9568 11.761 37.14 11.6993 37.3066C11.6908 37.3293 11.6814 37.3521 11.671 37.3739C11.6094 37.5014 11.5135 37.6089 11.3943 37.6844C11.2751 37.7598 11.1372 37.8002 10.9964 37.801H8.28368ZM24.3862 46.1661L9.82071 41.4872V39.0329H11.0049C11.5283 39.0314 12.0298 38.8217 12.4 38.4495C12.7702 38.0773 12.9789 37.573 12.9806 37.0465C12.9811 36.8079 12.9382 36.5712 12.8542 36.348C13.293 36.3147 13.7081 36.1348 14.0337 35.837C14.3592 35.5392 14.5765 35.1405 14.651 34.7043C14.7254 34.268 14.6529 33.8193 14.4448 33.4293C14.2367 33.0393 13.905 32.7304 13.5024 32.5517C13.6326 32.2827 13.7001 31.9873 13.6996 31.6881C13.6979 31.1616 13.4891 30.6572 13.119 30.2851C12.7488 29.9129 12.2472 29.7032 11.7238 29.7017H9.82071V22.316L12.507 23.1702L13.7279 23.5498L16.7567 24.5093L18.4787 25.055L24.3853 26.9266L24.3862 46.1661ZM14.2733 22.4299C14.3444 22.2458 14.4073 22.0559 14.462 21.8604C14.6425 22.1382 14.8331 22.4084 15.0338 22.6709L14.2733 22.4299ZM25.0495 25.8465L17.3747 23.415C16.3124 22.4415 15.4429 21.2744 14.8121 19.9756C14.1758 18.6689 13.7961 17.251 13.694 15.7997C13.9917 15.8638 14.2929 15.91 14.596 15.9382C14.8489 15.9629 15.1046 15.9743 15.364 15.9743C17.8173 15.9743 20.5677 14.9161 23.4634 12.8424C25.0042 11.7251 26.4414 10.4701 27.7575 9.09259C28.368 10.6728 29.8144 13.6918 32.3554 15.1021C33.2892 15.6297 34.3486 15.8903 35.4191 15.8557C35.7184 15.8474 36.0167 15.8173 36.3117 15.7655C36.2138 17.2217 35.837 18.6452 35.2021 19.9575C34.5584 21.2879 33.6648 22.4804 32.5705 23.4691L25.0495 25.8465ZM35.7635 22.4527L34.9285 22.7174C35.148 22.4327 35.3553 22.1388 35.5503 21.8358C35.6135 22.0455 35.6852 22.2505 35.7635 22.4498V22.4527ZM40.1774 41.529L25.6128 46.1965V26.9598L31.4185 25.1195L33.1801 24.5615L36.3249 23.5659L37.5515 23.1777L40.1783 22.3454V29.6077H38.2733C37.7501 29.6094 37.2488 29.8193 36.8788 30.1914C36.5088 30.5636 36.3002 31.0678 36.2985 31.5941C36.298 31.8933 36.3655 32.1887 36.4957 32.4578C36.0931 32.6364 35.7614 32.9453 35.5533 33.3353C35.3452 33.7253 35.2727 34.1741 35.3472 34.6103C35.4216 35.0465 35.6389 35.4452 35.9644 35.743C36.29 36.0408 36.7051 36.2207 37.1439 36.254C37.0599 36.4772 37.017 36.7139 37.0175 36.9525C37.0192 37.479 37.228 37.9834 37.5981 38.3555C37.9683 38.7277 38.4699 38.9375 38.9933 38.939H40.1774V41.529ZM41.7144 37.7118H38.9933C38.7948 37.7118 38.6045 37.6325 38.4642 37.4914C38.3238 37.3502 38.245 37.1588 38.245 36.9592C38.245 36.7596 38.3238 36.5682 38.4642 36.427C38.6045 36.2859 38.7948 36.2066 38.9933 36.2066H41.7144C41.815 36.2066 41.9145 36.2273 42.0069 36.2673C42.1662 36.3347 42.2973 36.4555 42.3779 36.6092C42.4586 36.7629 42.4838 36.9399 42.4494 37.1102C42.4149 37.2804 42.3228 37.4334 42.1888 37.5431C42.0548 37.6528 41.8872 37.7124 41.7144 37.7118ZM43.0996 34.2743C43.0978 34.4733 43.0185 34.6638 42.8785 34.8045C42.7386 34.9453 42.5492 35.0252 42.3513 35.0269H37.2968C37.1028 35.02 36.9191 34.9376 36.7843 34.7971C36.6495 34.6566 36.5742 34.469 36.5742 34.2738C36.5742 34.0786 36.6495 33.891 36.7843 33.7505C36.9191 33.61 37.1028 33.5276 37.2968 33.5207H42.3513C42.5494 33.5224 42.7389 33.6024 42.8788 33.7434C43.0188 33.8844 43.0981 34.075 43.0996 34.2743ZM41.8116 30.8424C42.0095 30.8442 42.1988 30.924 42.3388 31.0648C42.4787 31.2056 42.5581 31.396 42.5599 31.595C42.5602 31.671 42.5487 31.7466 42.5259 31.819C42.5192 31.8428 42.5107 31.8659 42.5004 31.8883C42.491 31.9098 42.4806 31.9317 42.4693 31.9538C42.457 31.9747 42.4447 31.9956 42.4315 32.0155C42.4184 32.0358 42.4039 32.0551 42.3881 32.0734C42.3731 32.0923 42.357 32.1104 42.34 32.1275C42.3259 32.1418 42.3111 32.1554 42.2957 32.1683C42.2796 32.1816 42.2645 32.1939 42.2475 32.2062L42.2117 32.2309C42.1975 32.2404 42.1824 32.249 42.1673 32.2575C42.1508 32.267 42.1338 32.2755 42.1164 32.2831H42.1098C42.0166 32.324 41.9161 32.345 41.8144 32.3448H38.2762C38.1745 32.345 38.074 32.324 37.9808 32.2831H37.9733C37.9599 32.2778 37.947 32.2714 37.9346 32.2641C37.9015 32.248 37.8699 32.229 37.8402 32.2072L37.8006 32.1768L37.7742 32.1531L37.7534 32.1341L37.7355 32.1151C37.7235 32.1035 37.7121 32.0911 37.7015 32.0781C37.6988 32.0754 37.6966 32.0722 37.6949 32.0686C37.6853 32.0579 37.6765 32.0465 37.6685 32.0345C37.6144 31.959 37.5747 31.874 37.5515 31.7839C37.5466 31.7661 37.5429 31.7481 37.5402 31.7298C37.5364 31.7108 37.5336 31.6919 37.5317 31.6729C37.5313 31.6669 37.5313 31.6608 37.5317 31.6548C37.5317 31.6349 37.5317 31.6159 37.5317 31.596C37.532 31.5553 37.5351 31.5147 37.5411 31.4745C37.5411 31.4584 37.5477 31.4422 37.5515 31.4261C37.5552 31.4081 37.56 31.3904 37.5657 31.373C37.5732 31.3492 37.5817 31.3265 37.5911 31.3037C37.6004 31.2813 37.6108 31.2595 37.6223 31.2382C37.6317 31.2221 37.6412 31.205 37.6515 31.1898C37.6619 31.1746 37.6515 31.1898 37.6515 31.1898L37.6666 31.168C37.6777 31.1512 37.6896 31.135 37.7025 31.1196C37.7176 31.1015 37.7336 31.0835 37.7506 31.0664C37.7676 31.0493 37.7855 31.0332 37.8034 31.018C37.8216 31.0021 37.8408 30.9875 37.861 30.9744C37.8808 30.9611 37.9016 30.9478 37.9223 30.9364C37.9431 30.925 37.9648 30.9136 37.9874 30.9041L38.0214 30.8908C38.0442 30.8821 38.0675 30.8748 38.0912 30.869C38.1367 30.8574 38.1831 30.8501 38.2299 30.8472H38.278L41.8116 30.8424ZM41.404 25.2742V21.5045C41.404 21.4077 41.3813 21.3122 41.3378 21.2258C41.2943 21.1394 41.2312 21.0645 41.1535 21.0072C41.0759 20.9499 40.9859 20.9118 40.8909 20.896C40.7959 20.8802 40.6986 20.8871 40.6067 20.9161L36.9429 22.0768C36.6964 21.4619 36.5333 20.8165 36.4579 20.1578C37.0945 18.7405 37.4625 17.2161 37.543 15.663C38.7272 15.0546 40.5841 14.2944 41.9777 14.6247C42.2595 14.686 42.525 14.8075 42.7561 14.9809C42.9873 15.1543 43.1787 15.3756 43.3175 15.6298C43.9648 16.7506 44.0129 17.9636 44.0601 19.1413C44.1384 21.1126 44.2195 23.1455 47.1842 24.142C46.2321 24.7523 43.8327 25.5855 41.404 25.2733V25.2742Z" fill="#d90414"/>
<path d="M27.5561 21.6445C27.5137 21.6948 26.5107 22.8697 25.0029 22.8697C23.4951 22.8697 22.4921 21.6948 22.4553 21.6445C22.3572 21.519 22.3114 21.3601 22.3273 21.2012C22.3433 21.0424 22.4199 20.896 22.541 20.7927C22.662 20.6895 22.8182 20.6375 22.9766 20.6477C23.135 20.6578 23.2833 20.7294 23.3904 20.8473C23.4064 20.8653 24.0848 21.6359 25.0076 21.6359C25.9304 21.6359 26.6163 20.8568 26.6229 20.8492C26.6749 20.7872 26.7384 20.7362 26.8099 20.6989C26.8815 20.6617 26.9596 20.639 27.0399 20.6321C27.1201 20.6252 27.2009 20.6343 27.2777 20.6589C27.3544 20.6834 27.4257 20.7229 27.4872 20.7751C27.5488 20.8274 27.5996 20.8913 27.6366 20.9632C27.6736 21.0352 27.6962 21.1138 27.703 21.1945C27.7099 21.2752 27.7008 21.3565 27.6764 21.4337C27.652 21.5109 27.6127 21.5825 27.5608 21.6445H27.5561Z" fill="#d90414"/>
<path d="M30.1768 16.9153C30.1769 17.1373 30.1117 17.3544 29.9892 17.5392C29.8667 17.7239 29.6925 17.868 29.4886 17.9531C29.2847 18.0383 29.0603 18.0607 28.8437 18.0176C28.6272 17.9744 28.4282 17.8677 28.2719 17.7108C28.1157 17.5539 28.0092 17.3539 27.966 17.1362C27.9227 16.9184 27.9446 16.6927 28.0289 16.4874C28.1133 16.2822 28.2562 16.1067 28.4396 15.9832C28.6231 15.8597 28.8388 15.7936 29.0596 15.7935C29.2062 15.7933 29.3514 15.8222 29.4868 15.8786C29.6223 15.9349 29.7454 16.0175 29.8492 16.1216C29.9529 16.2258 30.0352 16.3495 30.0914 16.4857C30.1476 16.6218 30.1766 16.7678 30.1768 16.9153Z" fill="#d90414"/>
<path d="M20.9444 18.0371C21.5603 18.0371 22.0596 17.5348 22.0596 16.9153C22.0596 16.2957 21.5603 15.7935 20.9444 15.7935C20.3284 15.7935 19.8291 16.2957 19.8291 16.9153C19.8291 17.5348 20.3284 18.0371 20.9444 18.0371Z" fill="#d90414"/>
</svg>
