<svg width="50" height="50" viewBox="0 0 50 50" fill="none" xmlns="http://www.w3.org/2000/svg">
<path d="M24.3858 41.5278C24.3858 41.6967 24.3357 41.8619 24.2417 42.0023C24.1477 42.1428 24.0141 42.2523 23.8578 42.3169C23.7015 42.3815 23.5295 42.3983 23.3636 42.3653C23.1978 42.3323 23.0454 42.2508 22.9259 42.1313C22.8063 42.0118 22.725 41.8595 22.6921 41.6938C22.6592 41.5281 22.6763 41.3564 22.7411 41.2003C22.806 41.0443 22.9157 40.911 23.0565 40.8173C23.1972 40.7236 23.3626 40.6736 23.5318 40.6738C23.644 40.6738 23.7551 40.6959 23.8588 40.7389C23.9625 40.7818 24.0567 40.8447 24.136 40.924C24.2153 41.0033 24.2782 41.0975 24.3211 41.2011C24.364 41.3047 24.386 41.4157 24.3858 41.5278Z" fill="#d90414"/>
<path d="M45.9481 30.9925L39.3874 15.1892C39.3399 15.0756 39.2598 14.9786 39.1573 14.9103C39.0547 14.842 38.9343 14.8055 38.811 14.8054H32.1524C32.1529 14.8003 32.1529 14.7951 32.1524 14.79C32.1524 12.8942 31.3983 11.0759 30.0561 9.73533C28.7139 8.39474 26.8934 7.6416 24.9952 7.6416C23.097 7.6416 21.2765 8.39474 19.9343 9.73533C18.592 11.0759 17.838 12.8942 17.838 14.79C17.8375 14.7951 17.8375 14.8003 17.838 14.8054H11.3926C11.2694 14.8056 11.149 14.8422 11.0465 14.9105C10.9439 14.9787 10.8639 15.0757 10.8162 15.1892L4.05194 30.9868C4.0124 31.0815 3.9969 31.1846 4.00682 31.2868C4.01673 31.389 4.05176 31.4872 4.10878 31.5726C4.16581 31.658 4.24307 31.7281 4.33371 31.7765C4.42435 31.825 4.52556 31.8503 4.62836 31.8503H8.45483V47.0319C8.45508 47.1972 8.52095 47.3557 8.63801 47.4726C8.75506 47.5895 8.91375 47.6553 9.07928 47.6556H40.915C41.0805 47.6553 41.2392 47.5895 41.3562 47.4726C41.4733 47.3557 41.5392 47.1972 41.5394 47.0319V31.8551H45.3716C45.4744 31.8551 45.5757 31.8298 45.6663 31.7813C45.7569 31.7329 45.8342 31.6628 45.8912 31.5774C45.9482 31.492 45.9833 31.3938 45.9932 31.2916C46.0031 31.1894 45.9876 31.0863 45.9481 30.9915V30.9925ZM19.0888 14.7891C19.0888 13.224 19.7113 11.7231 20.8193 10.6164C21.9273 9.50974 23.4301 8.88802 24.9971 8.88802C26.5641 8.88802 28.0669 9.50974 29.1749 10.6164C30.2829 11.7231 30.9054 13.224 30.9054 14.7891C30.9049 14.7942 30.9049 14.7993 30.9054 14.8044H19.0888C19.0893 14.7993 19.0893 14.7942 19.0888 14.7891ZM29.2847 46.4082H20.7086V36.3332H29.2847V46.4082ZM40.2905 46.4082H30.5336V35.7095C30.5338 35.6276 30.5177 35.5464 30.4864 35.4707C30.455 35.395 30.409 35.3262 30.351 35.2682C30.293 35.2103 30.2241 35.1643 30.1483 35.133C30.0725 35.1017 29.9912 35.0857 29.9092 35.0858H20.0841C20.0021 35.0857 19.9208 35.1017 19.845 35.133C19.7692 35.1643 19.7003 35.2103 19.6423 35.2682C19.5842 35.3262 19.5383 35.395 19.5069 35.4707C19.4756 35.5464 19.4595 35.6276 19.4596 35.7095V46.4082H9.70374V31.8551H40.2905V46.4082ZM5.57177 30.6077L11.8048 16.0518H38.3893L44.433 30.6077H5.57177Z" fill="#d90414"/>
<path d="M38.2467 26.7383L35.3329 19.0334C35.2881 18.9148 35.2082 18.8127 35.1038 18.7407C34.9995 18.6687 34.8756 18.6302 34.7488 18.6304H15.2946C15.1683 18.6301 15.045 18.6682 14.9409 18.7394C14.8368 18.8107 14.7568 18.9119 14.7114 19.0295L11.7477 26.7345C11.7115 26.8289 11.6989 26.9307 11.711 27.0311C11.723 27.1315 11.7592 27.2274 11.8166 27.3107C11.874 27.394 11.9508 27.462 12.0403 27.5091C12.1299 27.5562 12.2296 27.5808 12.3308 27.5808H37.6626C37.7635 27.5809 37.8629 27.5566 37.9523 27.5098C38.0417 27.4631 38.1184 27.3954 38.1759 27.3126C38.2333 27.2297 38.2698 27.1342 38.2821 27.0342C38.2944 26.9341 38.2823 26.8326 38.2467 26.7383ZM25.6221 19.8777H29.3938L30.2632 22.4828H25.6221V19.8777ZM17.1324 26.3334H13.2406L14.2455 23.7302H18.0278L17.1324 26.3334ZM14.7258 22.4828L15.7279 19.8777H19.3487L18.4562 22.4828H14.7258ZM24.378 26.3334H18.4524L19.3439 23.7302H24.3732L24.378 26.3334ZM24.378 22.4828H19.7762L20.6687 19.8777H24.378V22.4828ZM25.6269 26.3334V23.7302H30.685L31.5544 26.3334H25.6269ZM30.7186 19.8777H34.3251L35.3108 22.4828H31.5804L30.7186 19.8777ZM32.8754 26.3334L32.005 23.7302H35.7181C35.7392 23.7317 35.7604 23.7317 35.7815 23.7302L36.7681 26.3372L32.8754 26.3334Z" fill="#d90414"/>
<path d="M21.6647 7.00404C21.5414 7.00392 21.4209 6.96742 21.3184 6.89913C21.2158 6.83085 21.1358 6.73382 21.0882 6.62024L20.0334 4.08134C19.9697 3.92865 19.9693 3.75695 20.0324 3.60399C20.0954 3.45104 20.2168 3.32937 20.3696 3.26575C20.5225 3.20213 20.6944 3.20177 20.8476 3.26475C21.0007 3.32773 21.1225 3.44889 21.1862 3.60158L22.243 6.14239C22.2828 6.23716 22.2985 6.34029 22.2887 6.44258C22.2789 6.54488 22.2439 6.64316 22.1868 6.72866C22.1297 6.81417 22.0524 6.88424 21.9616 6.93262C21.8708 6.981 21.7695 7.0062 21.6666 7.00596L21.6647 7.00404Z" fill="#d90414"/>
<path d="M18.7821 8.94402C18.6183 8.94434 18.4611 8.87982 18.345 8.76459L16.3803 6.83691C16.3198 6.77999 16.2713 6.71158 16.2376 6.63569C16.204 6.5598 16.1858 6.47796 16.1842 6.39496C16.1826 6.31197 16.1976 6.22949 16.2283 6.15236C16.2591 6.07524 16.3049 6.00501 16.3632 5.94581C16.4214 5.8866 16.4909 5.83961 16.5676 5.80758C16.6443 5.77555 16.7266 5.75913 16.8097 5.75928C16.8928 5.75943 16.975 5.77615 17.0516 5.80846C17.1282 5.84077 17.1975 5.88802 17.2555 5.94744L19.2202 7.87512C19.3087 7.9619 19.3694 8.07308 19.3944 8.19446C19.4195 8.31583 19.4078 8.44191 19.3608 8.5566C19.3138 8.6713 19.2336 8.7694 19.1305 8.8384C19.0275 8.90741 18.9062 8.94418 18.7821 8.94402Z" fill="#d90414"/>
<path d="M16.8928 11.8545C16.8145 11.8543 16.7369 11.8393 16.6642 11.8104L14.102 10.799C14.0257 10.7691 13.956 10.7243 13.897 10.6675C13.8379 10.6106 13.7907 10.5427 13.758 10.4675C13.7252 10.3924 13.7076 10.3116 13.7062 10.2297C13.7047 10.1478 13.7194 10.0664 13.7494 9.99017C13.7794 9.91394 13.8242 9.84436 13.8812 9.78541C13.9381 9.72645 14.0061 9.67928 14.0813 9.64658C14.1565 9.61388 14.2374 9.59629 14.3195 9.59483C14.4015 9.59336 14.483 9.60804 14.5593 9.63803L17.1224 10.6465C17.2606 10.6979 17.376 10.7964 17.4484 10.9247C17.5208 11.0529 17.5454 11.2026 17.5179 11.3473C17.4905 11.4919 17.4126 11.6222 17.2982 11.715C17.1838 11.8078 17.0402 11.8573 16.8928 11.8545Z" fill="#d90414"/>
<path d="M24.997 6.05422C24.8314 6.05422 24.6726 5.98851 24.5555 5.87154C24.4383 5.75458 24.3726 5.59594 24.3726 5.43053V2.96744C24.3726 2.80203 24.4383 2.64339 24.5555 2.52642C24.6726 2.40946 24.8314 2.34375 24.997 2.34375C25.1626 2.34375 25.3215 2.40946 25.4386 2.52642C25.5557 2.64339 25.6215 2.80203 25.6215 2.96744V5.43053C25.6215 5.59594 25.5557 5.75458 25.4386 5.87154C25.3215 5.98851 25.1626 6.05422 24.997 6.05422Z" fill="#d90414"/>
<path d="M28.329 7.005C28.2472 7.00481 28.1663 6.98885 28.0907 6.95799C27.9376 6.89453 27.8161 6.77299 27.7527 6.62007C27.6893 6.46715 27.6892 6.29535 27.7525 6.14239L28.8093 3.60158C28.8408 3.52598 28.887 3.45732 28.9451 3.39953C29.0032 3.34173 29.0721 3.29594 29.148 3.26475C29.2238 3.23357 29.305 3.2176 29.387 3.21777C29.469 3.21795 29.5502 3.23425 29.6259 3.26575C29.7016 3.29725 29.7703 3.34334 29.8282 3.40137C29.8861 3.45941 29.9319 3.52826 29.9631 3.60399C29.9944 3.67973 30.0103 3.76086 30.0102 3.84277C30.01 3.92467 29.9937 4.00574 29.9621 4.08134L28.9054 6.62311C28.8577 6.73642 28.7775 6.83311 28.6749 6.90105C28.5724 6.969 28.452 7.00516 28.329 7.005Z" fill="#d90414"/>
<path d="M31.2082 8.94402C31.084 8.94456 30.9624 8.90806 30.859 8.83921C30.7557 8.77035 30.6752 8.67227 30.628 8.5575C30.5807 8.44272 30.5688 8.31649 30.5938 8.19493C30.6188 8.07337 30.6795 7.96202 30.7682 7.87512L32.7328 5.94744C32.7909 5.88802 32.8602 5.84077 32.9368 5.80846C33.0133 5.77615 33.0956 5.75943 33.1787 5.75928C33.2618 5.75913 33.3441 5.77555 33.4208 5.80758C33.4974 5.83961 33.5669 5.8866 33.6252 5.94581C33.6835 6.00501 33.7293 6.07524 33.76 6.15236C33.7908 6.22949 33.8058 6.31197 33.8042 6.39496C33.8026 6.47796 33.7844 6.5598 33.7507 6.63569C33.717 6.71158 33.6685 6.77999 33.608 6.83691L31.6453 8.76459C31.5291 8.87982 31.3719 8.94434 31.2082 8.94402Z" fill="#d90414"/>
<path d="M33.1004 11.8531C32.9549 11.8532 32.8139 11.8025 32.7019 11.7099C32.5898 11.6172 32.5136 11.4884 32.4865 11.3456C32.4594 11.2029 32.4831 11.0551 32.5534 10.9279C32.6237 10.8007 32.7363 10.7021 32.8717 10.6489L35.4339 9.64047C35.5881 9.5799 35.76 9.58298 35.9119 9.64902C36.0638 9.71506 36.1832 9.83865 36.2438 9.99262C36.3044 10.1466 36.3014 10.3183 36.2352 10.47C36.1691 10.6217 36.0454 10.7409 35.8912 10.8015L33.329 11.809C33.2563 11.838 33.1787 11.853 33.1004 11.8531Z" fill="#d90414"/>
</svg>
