<svg width="50" height="50" viewBox="0 0 50 50" fill="none" xmlns="http://www.w3.org/2000/svg">
<path d="M44.0436 34.5159C44.0359 34.4498 44.0183 34.3852 43.9913 34.3243C43.8519 32.909 42.5671 31.6207 40.3245 30.6348C40.1758 31.0557 39.979 31.4581 39.738 31.8339C41.6032 32.6394 42.6716 33.6346 42.6716 34.5795C42.6716 36.6702 37.4493 38.9986 29.9567 38.9986C22.4641 38.9986 17.2418 36.6702 17.2418 34.5795C17.2418 32.5831 22.0099 30.3674 28.9723 30.1726C28.8555 29.7376 28.7895 29.2905 28.7754 28.8403C25.5659 28.9428 22.5769 29.4737 20.2585 30.354C17.6037 31.3635 16.0769 32.7593 15.9221 34.3089C15.8943 34.3703 15.8763 34.4357 15.8687 34.5026C15.5345 37.4224 16.484 40.2253 18.6096 42.6091C21.3341 45.6806 25.7915 47.6565 29.9557 47.6565C34.2624 47.6565 38.6306 45.7605 41.354 42.7075C43.4581 40.3494 44.3882 37.5167 44.0436 34.5159ZM40.3594 41.821C37.9189 44.5563 33.8348 46.3242 29.9557 46.3242C26.1545 46.3242 22.0909 44.5225 19.5991 41.736C18.6558 40.6794 17.6212 39.1236 17.2633 37.1303C17.9893 37.7585 18.9931 38.3232 20.2523 38.8018C22.8538 39.7908 26.3022 40.3391 29.9516 40.3391C33.601 40.3391 37.0494 39.7949 39.6508 38.8018C40.9233 38.3181 41.9364 37.7462 42.6645 37.1088C42.3958 38.8131 41.6165 40.4119 40.3594 41.821Z" fill="#525252"/>
<path d="M43.2014 16.6866C42.5339 17.8785 41.2081 18.478 40.5231 18.7363C40.4675 18.7529 40.4089 18.7576 40.3513 18.7499C40.2938 18.7422 40.2385 18.7224 40.1892 18.6918C40.1398 18.6612 40.0975 18.6205 40.0651 18.5723C40.0327 18.5241 40.0109 18.4696 40.0012 18.4124C39.8463 17.7196 39.6771 16.252 40.3437 15.0612C41.0102 13.8703 42.336 13.2697 43.022 13.0115C43.0766 12.9897 43.1353 12.9804 43.194 12.9842C43.2526 12.9881 43.3097 13.0049 43.361 13.0336C43.4123 13.0623 43.4565 13.102 43.4905 13.15C43.5244 13.1979 43.5472 13.2528 43.5573 13.3107C43.6988 14.0281 43.8679 15.4957 43.2014 16.6866Z" fill="#525252"/>
<path d="M37.9168 21.9063C37.8836 21.9533 37.8403 21.9924 37.7902 22.0208C37.7401 22.0493 37.6844 22.0663 37.6269 22.0708C37.5695 22.0753 37.5118 22.0672 37.4578 22.0469C37.4039 22.0266 37.3551 21.9947 37.3149 21.9534C36.8022 21.441 35.8168 20.3495 35.7317 18.9608C35.6466 17.5722 36.4023 16.3352 36.8535 15.7572C36.8867 15.71 36.9298 15.6708 36.98 15.6422C37.0301 15.6137 37.0859 15.5965 37.1434 15.592C37.2009 15.5875 37.2586 15.5958 37.3126 15.6162C37.3665 15.6366 37.4153 15.6686 37.4554 15.71C37.9927 16.2337 38.9392 17.3385 39.0386 18.7026C39.1237 20.0882 38.368 21.3282 37.9168 21.9063Z" fill="#525252"/>
<path d="M44.4047 20.01C44.1238 20.6833 43.4757 22.0126 42.2606 22.6429C41.0455 23.2731 39.5843 23.0302 38.8768 22.8601C38.8216 22.846 38.77 22.8204 38.7254 22.7849C38.6809 22.7493 38.6444 22.7047 38.6184 22.6541C38.5925 22.6034 38.5776 22.5477 38.5747 22.4909C38.5719 22.434 38.5812 22.3771 38.602 22.3241C38.8829 21.6508 39.531 20.3206 40.7461 19.6913C41.9766 19.0374 43.4357 19.2814 44.1299 19.474C44.1852 19.488 44.2369 19.5135 44.2815 19.549C44.3262 19.5845 44.3627 19.6291 44.3887 19.6798C44.4147 19.7306 44.4296 19.7863 44.4324 19.8432C44.4351 19.9001 44.4257 19.957 44.4047 20.01Z" fill="#525252"/>
<path d="M35.2485 26.6713C35.2155 26.7184 35.1724 26.7576 35.1224 26.7862C35.0723 26.8147 35.0166 26.8319 34.9592 26.8364C34.9018 26.8409 34.8441 26.8326 34.7902 26.8122C34.7363 26.7919 34.6877 26.7598 34.6476 26.7184C34.1349 26.206 33.1495 25.1145 33.0634 23.7258C32.9773 22.3372 33.735 21.1002 34.1913 20.5222C34.2245 20.4751 34.2676 20.4359 34.3177 20.4075C34.3677 20.379 34.4235 20.362 34.4809 20.3576C34.5383 20.3532 34.596 20.3615 34.6498 20.382C34.7036 20.4025 34.7523 20.4346 34.7922 20.4761C35.3295 20.9998 36.277 22.1035 36.3754 23.4676C36.4554 24.8563 35.6997 26.0932 35.2485 26.6713Z" fill="#525252"/>
<path d="M41.7673 24.7288C41.4874 25.4021 40.8383 26.7313 39.6243 27.3606C38.4102 27.9898 36.948 27.748 36.2404 27.5789C36.1851 27.5648 36.1334 27.5391 36.0888 27.5035C36.0441 27.468 36.0076 27.4233 35.9816 27.3725C35.9556 27.3216 35.9407 27.2659 35.938 27.2089C35.9352 27.1519 35.9446 27.0949 35.9656 27.0419C36.2466 26.3696 36.8946 25.0393 38.1087 24.4101C39.3228 23.7808 40.785 24.0227 41.4925 24.1918C41.5472 24.207 41.5981 24.2333 41.642 24.2692C41.6859 24.305 41.722 24.3496 41.7478 24.4C41.7736 24.4505 41.7887 24.5058 41.792 24.5624C41.7954 24.6189 41.787 24.6756 41.7673 24.7288Z" fill="#525252"/>
<path d="M32.5964 31.4145C32.5606 31.4573 32.5166 31.4925 32.467 31.5182C32.4174 31.5438 32.3632 31.5594 32.3076 31.5638C32.2519 31.5683 32.1959 31.5617 32.1429 31.5443C32.0898 31.5269 32.0408 31.4992 31.9986 31.4626C31.4613 30.9379 30.5138 29.8342 30.4143 28.4701C30.3292 27.0814 31.086 25.8444 31.5423 25.2664C31.5753 25.2193 31.6184 25.18 31.6684 25.1515C31.7185 25.1229 31.7742 25.1058 31.8316 25.1013C31.889 25.0968 31.9467 25.105 32.0006 25.1254C32.0544 25.1458 32.1031 25.1779 32.1431 25.2193C32.6805 25.743 33.6279 26.8478 33.7264 28.2118C33.8043 29.5995 33.0475 30.8365 32.5964 31.4145Z" fill="#525252"/>
<path d="M39.0992 29.4953C38.8193 30.1676 38.1702 31.4979 36.9562 32.1271C35.7421 32.7564 34.2799 32.5145 33.5723 32.3444C33.5169 32.3306 33.4651 32.3051 33.4204 32.2697C33.3757 32.2342 33.3391 32.1896 33.313 32.1388C33.287 32.088 33.2722 32.0323 33.2695 31.9753C33.2668 31.9183 33.2764 31.8614 33.2975 31.8084C33.5785 31.1351 34.2265 29.8059 35.4416 29.1756C36.6567 28.5453 38.1179 28.7892 38.8255 28.9583C38.8832 28.9682 38.9378 28.9915 38.9849 29.0262C39.032 29.0609 39.0704 29.1061 39.097 29.1582C39.1236 29.2104 39.1376 29.268 39.138 29.3265C39.1384 29.385 39.1251 29.4428 39.0992 29.4953Z" fill="#525252"/>
<path d="M19.2063 5.20996C19.153 5.21763 19.0988 5.21763 19.0454 5.20996C19.0988 5.21663 19.1529 5.21663 19.2063 5.20996Z" fill="#525252"/>
<path d="M29.2444 3.16555C29.2138 3.07499 29.1641 2.99205 29.0987 2.92238C29.0332 2.8527 28.9535 2.79793 28.865 2.76176C28.7204 2.70232 25.2915 1.3567 19.1104 3.83273C12.9282 1.3567 9.50031 2.7054 9.35573 2.76176C9.26681 2.79752 9.18666 2.85202 9.12073 2.92155C9.0548 2.99108 9.00465 3.074 8.9737 3.16466C8.94275 3.25532 8.93172 3.35159 8.94138 3.44689C8.95104 3.5422 8.98115 3.6343 9.02965 3.71692L11.9162 8.60339C11.9748 8.70313 12.0586 8.78579 12.1592 8.84314C12.2597 8.90049 12.3736 8.93055 12.4894 8.93031H25.717C25.8329 8.93042 25.9468 8.90032 26.0475 8.84299C26.1482 8.78566 26.2322 8.70307 26.2912 8.60339L29.1767 3.71692C29.2269 3.63525 29.2589 3.54373 29.2706 3.4486C29.2823 3.35346 29.2733 3.25693 29.2444 3.16555ZM25.3479 7.59801H12.8739L10.6313 3.80608C11.8895 3.58574 14.6663 3.45046 18.8253 5.15888L18.8561 5.17118C18.8766 5.17938 18.8981 5.18758 18.9186 5.19372C18.9391 5.19987 18.9606 5.205 18.9822 5.2091C19.0037 5.2132 19.0252 5.21627 19.0468 5.21832C19.1002 5.22499 19.1543 5.22499 19.2078 5.21832C19.2396 5.21356 19.2711 5.20671 19.3021 5.19782C19.3233 5.19138 19.3442 5.18386 19.3647 5.17528C23.5042 3.45968 26.3138 3.58779 27.5894 3.80711L25.3479 7.59801Z" fill="#525252"/>
<path d="M31.8123 16.9108L27.398 10.5496C27.3366 10.4613 27.2547 10.3892 27.1594 10.3394C27.064 10.2896 26.958 10.2636 26.8504 10.2637H11.5925C11.4194 10.2635 11.2532 10.3308 11.129 10.4512C9.00335 12.5112 7.62931 14.2606 6.45831 17.6067C6.22731 18.2658 6.05572 18.9442 5.94561 19.6338C5.154 24.6556 5.59492 27.8049 7.33297 29.541C8.40964 30.6171 9.94672 31.1429 12.0724 31.1429C13.0112 31.1331 13.9478 31.0505 14.8738 30.8959C14.9621 30.8818 15.0468 30.8501 15.1227 30.8028C15.1986 30.7554 15.2642 30.6933 15.3157 30.6202C18.0638 26.7022 27.0053 26.6233 27.0924 26.6233C27.2564 26.623 27.4145 26.5621 27.5364 26.4524C27.6583 26.3427 27.7353 26.1919 27.7528 26.0289C28.0737 23.0784 31.7713 17.7276 31.8082 17.6692C31.8861 17.5583 31.9283 17.4262 31.929 17.2907C31.9298 17.1551 31.889 17.0226 31.8123 16.9108ZM26.5243 25.3043C24.4346 25.3843 17.267 25.9295 14.4021 29.6199C11.3669 30.0647 9.41556 29.7378 8.27326 28.5951C6.8818 27.2054 6.55059 24.341 7.26017 19.8378C7.35707 19.2273 7.5084 18.6268 7.71237 18.0433C8.76648 15.0302 9.94877 13.4673 11.8591 11.5929H26.5018L30.4598 17.2931C29.6272 18.5373 27.1047 22.485 26.5243 25.3043Z" fill="#525252"/>
<path d="M22.9756 17.7182C22.9756 17.8948 22.9053 18.0643 22.7803 18.1892C22.6553 18.3141 22.4858 18.3843 22.309 18.3843H20.6869C20.5391 18.8688 20.295 19.3185 19.9691 19.7064C19.3908 20.3879 18.5838 20.8091 17.5594 20.9659L20.5638 24.0896C20.6254 24.1525 20.6739 24.227 20.7065 24.3088C20.7391 24.3906 20.7552 24.478 20.7538 24.566C20.7524 24.654 20.7335 24.7409 20.6984 24.8216C20.6632 24.9022 20.6123 24.9752 20.5488 25.0361C20.4852 25.097 20.4102 25.1448 20.3281 25.1766C20.246 25.2084 20.1584 25.2236 20.0704 25.2214C19.9823 25.2191 19.8956 25.1995 19.8152 25.1635C19.7348 25.1276 19.6624 25.0761 19.602 25.012L15.5609 20.8101C15.467 20.713 15.4048 20.5897 15.3826 20.4565C15.3604 20.3232 15.3792 20.1864 15.4366 20.0642C15.494 19.9419 15.5872 19.8399 15.7039 19.7718C15.8206 19.7037 15.9553 19.6727 16.09 19.6828C17.4323 19.7801 18.3961 19.4983 18.9529 18.8424C19.071 18.7019 19.1712 18.5474 19.2513 18.3823H16.0459C15.8691 18.3823 15.6996 18.3121 15.5746 18.1871C15.4496 18.0622 15.3794 17.8928 15.3794 17.7161C15.3794 17.5394 15.4496 17.37 15.5746 17.2451C15.6996 17.1201 15.8691 17.05 16.0459 17.05H19.5753C19.5952 16.6699 19.5773 16.2889 19.522 15.9124H16.0459C15.8691 15.9124 15.6996 15.8422 15.5746 15.7173C15.4496 15.5923 15.3794 15.4229 15.3794 15.2462C15.3794 15.0696 15.4496 14.9001 15.5746 14.7752C15.6996 14.6503 15.8691 14.5801 16.0459 14.5801H22.3008C22.4776 14.5801 22.6471 14.6503 22.7721 14.7752C22.8971 14.9001 22.9674 15.0696 22.9674 15.2462C22.9674 15.4229 22.8971 15.5923 22.7721 15.7173C22.6471 15.8422 22.4776 15.9124 22.3008 15.9124H20.8653C20.9107 16.2898 20.9251 16.6702 20.9084 17.05H22.3019C22.3902 17.049 22.4778 17.0656 22.5596 17.0988C22.6414 17.132 22.7159 17.1811 22.7785 17.2432C22.8412 17.3054 22.8909 17.3794 22.9247 17.4609C22.9586 17.5425 22.9758 17.6299 22.9756 17.7182Z" fill="#525252"/>
<path d="M32.6449 33.3763L30.9858 36.3484C30.9277 36.4519 30.843 36.5382 30.7404 36.5981C30.6379 36.6581 30.5212 36.6897 30.4024 36.6896C30.2862 36.6896 30.1721 36.6591 30.0713 36.6014C29.9706 36.5437 29.8866 36.4606 29.8279 36.3604C29.7691 36.2603 29.7376 36.1465 29.7364 36.0304C29.7352 35.9144 29.7643 35.8 29.821 35.6986L31.4811 32.7266C31.5238 32.6502 31.5811 32.583 31.6498 32.5287C31.7185 32.4745 31.7972 32.4343 31.8814 32.4105C31.9656 32.3866 32.0537 32.3796 32.1406 32.3898C32.2276 32.4 32.3116 32.4272 32.3881 32.4698C32.4645 32.5125 32.5317 32.5698 32.586 32.6384C32.6403 32.7071 32.6805 32.7857 32.7043 32.8699C32.7282 32.9541 32.7352 33.0421 32.725 33.129C32.7148 33.2159 32.6876 33.2999 32.6449 33.3763Z" fill="#525252"/>
</svg>
