<svg width="50" height="50" viewBox="0 0 50 50" fill="none" xmlns="http://www.w3.org/2000/svg">
<path d="M35.8732 33.4281C34.369 33.4281 32.6211 32.193 32.6211 30.6009V24.4483C32.6211 24.3196 32.6211 24.229 32.6084 24.1031C31.1179 23.0374 30.3313 21.2442 30.4917 19.2444C30.6037 17.9597 31.1686 16.7567 32.0857 15.85C33.0028 14.9434 34.2122 14.3923 35.4981 14.2951C36.2404 14.2389 36.9863 14.3378 37.6883 14.5855C38.3903 14.8332 39.0331 15.2244 39.5757 15.734C40.1178 16.2408 40.5503 16.8533 40.8464 17.5337C41.1425 18.2142 41.296 18.9481 41.2973 19.6902C41.2973 21.5396 40.5235 23.1335 39.1625 24.1049C39.1543 24.2163 39.1507 24.3242 39.1507 24.4483V30.5982C39.148 32.1912 37.3883 33.4281 35.8732 33.4281ZM35.8877 15.4604C35.7853 15.4604 35.6829 15.4604 35.5796 15.4704C34.5743 15.5459 33.6285 15.9767 32.9116 16.6855C32.1946 17.3943 31.7531 18.3351 31.6661 19.3395C31.5329 21.0014 32.2097 22.4711 33.4783 23.2721C33.5536 23.3197 33.6172 23.3837 33.6643 23.4594C33.7114 23.535 33.7407 23.6203 33.7502 23.7089C33.7802 23.9545 33.7953 24.2017 33.7955 24.4492V30.6009C33.7955 31.4735 34.9553 32.2501 35.8696 32.2501C36.7839 32.2501 37.9655 31.4491 37.9655 30.5991V24.4483C37.9645 24.1981 37.9799 23.948 38.0117 23.6998C38.0225 23.6129 38.0525 23.5294 38.0995 23.4554C38.1465 23.3814 38.2094 23.3188 38.2835 23.2721C39.4461 22.54 40.113 21.2343 40.113 19.6902C40.113 18.5686 39.6676 17.4929 38.8748 16.6996C38.082 15.9063 37.0066 15.4602 35.885 15.4595L35.8877 15.4604Z" fill="#525252"/>
<path d="M42.85 26.0242H40.7233C40.5671 26.0242 40.4172 25.9621 40.3068 25.8517C40.1963 25.7412 40.1343 25.5914 40.1343 25.4352C40.1343 25.279 40.1963 25.1292 40.3068 25.0187C40.4172 24.9082 40.5671 24.8462 40.7233 24.8462H42.85C43.0062 24.8462 43.156 24.9082 43.2664 25.0187C43.3769 25.1292 43.4389 25.279 43.4389 25.4352C43.4389 25.5914 43.3769 25.7412 43.2664 25.8517C43.156 25.9621 43.0062 26.0242 42.85 26.0242Z" fill="#525252"/>
<path d="M42.85 28.0798H40.7233C40.5671 28.0798 40.4172 28.0178 40.3068 27.9073C40.1963 27.7969 40.1343 27.647 40.1343 27.4908C40.1343 27.3346 40.1963 27.1848 40.3068 27.0744C40.4172 26.9639 40.5671 26.9019 40.7233 26.9019H42.85C43.0062 26.9019 43.156 26.9639 43.2664 27.0744C43.3769 27.1848 43.4389 27.3346 43.4389 27.4908C43.4389 27.647 43.3769 27.7969 43.2664 27.9073C43.156 28.0178 43.0062 28.0798 42.85 28.0798Z" fill="#525252"/>
<path d="M42.85 30.1404H40.7233C40.5671 30.1404 40.4172 30.0783 40.3068 29.9679C40.1963 29.8574 40.1343 29.7076 40.1343 29.5514C40.1343 29.3952 40.1963 29.2454 40.3068 29.1349C40.4172 29.0245 40.5671 28.9624 40.7233 28.9624H42.85C43.0062 28.9624 43.156 29.0245 43.2664 29.1349C43.3769 29.2454 43.4389 29.3952 43.4389 29.5514C43.4389 29.7076 43.3769 29.8574 43.2664 29.9679C43.156 30.0783 43.0062 30.1404 42.85 30.1404Z" fill="#525252"/>
<path d="M31.0436 26.0242H28.9142C28.758 26.0242 28.6082 25.9621 28.4977 25.8517C28.3872 25.7412 28.3252 25.5914 28.3252 25.4352C28.3252 25.279 28.3872 25.1292 28.4977 25.0187C28.6082 24.9082 28.758 24.8462 28.9142 24.8462H31.0436C31.1998 24.8462 31.3496 24.9082 31.4601 25.0187C31.5705 25.1292 31.6326 25.279 31.6326 25.4352C31.6326 25.5914 31.5705 25.7412 31.4601 25.8517C31.3496 25.9621 31.1998 26.0242 31.0436 26.0242Z" fill="#525252"/>
<path d="M31.0436 28.0798H28.9142C28.758 28.0798 28.6082 28.0178 28.4977 27.9073C28.3872 27.7969 28.3252 27.647 28.3252 27.4908C28.3252 27.3346 28.3872 27.1848 28.4977 27.0744C28.6082 26.9639 28.758 26.9019 28.9142 26.9019H31.0436C31.1998 26.9019 31.3496 26.9639 31.4601 27.0744C31.5705 27.1848 31.6326 27.3346 31.6326 27.4908C31.6326 27.647 31.5705 27.7969 31.4601 27.9073C31.3496 28.0178 31.1998 28.0798 31.0436 28.0798Z" fill="#525252"/>
<path d="M31.0436 30.1404H28.9142C28.758 30.1404 28.6082 30.0783 28.4977 29.9679C28.3872 29.8574 28.3252 29.7076 28.3252 29.5514C28.3252 29.3952 28.3872 29.2454 28.4977 29.1349C28.6082 29.0245 28.758 28.9624 28.9142 28.9624H31.0436C31.1998 28.9624 31.3496 29.0245 31.4601 29.1349C31.5705 29.2454 31.6326 29.3952 31.6326 29.5514C31.6326 29.7076 31.5705 29.8574 31.4601 29.9679C31.3496 30.0783 31.1998 30.1404 31.0436 30.1404Z" fill="#525252"/>
<path d="M35.886 21.5571C35.4505 21.5571 35.0248 21.428 34.6627 21.186C34.3006 20.9441 34.0183 20.6002 33.8517 20.1978C33.685 19.7955 33.6414 19.3528 33.7264 18.9257C33.8114 18.4985 34.0211 18.1062 34.329 17.7982C34.6369 17.4903 35.0293 17.2806 35.4564 17.1956C35.8835 17.1107 36.3263 17.1543 36.7286 17.3209C37.131 17.4876 37.4748 17.7698 37.7168 18.1319C37.9587 18.494 38.0879 18.9197 38.0879 19.3552C38.0872 19.939 37.8549 20.4986 37.4422 20.9114C37.0294 21.3242 36.4697 21.5564 35.886 21.5571ZM35.886 18.3322C35.6834 18.3322 35.4854 18.3923 35.317 18.5048C35.1486 18.6174 35.0174 18.7773 34.9399 18.9645C34.8624 19.1516 34.8422 19.3576 34.8818 19.5562C34.9214 19.7549 35.019 19.9373 35.1623 20.0805C35.3056 20.2236 35.4881 20.3211 35.6868 20.3605C35.8855 20.3999 36.0914 20.3795 36.2784 20.3019C36.4655 20.2242 36.6254 20.0928 36.7378 19.9243C36.8502 19.7558 36.9101 19.5578 36.9099 19.3552C36.9103 19.2205 36.8841 19.087 36.8328 18.9624C36.7815 18.8378 36.7061 18.7246 36.611 18.6291C36.5159 18.5337 36.4029 18.4579 36.2785 18.4062C36.1541 18.3545 36.0207 18.3278 35.886 18.3277V18.3322Z" fill="#525252"/>
<path d="M16.4831 37.1199C16.4459 37.1184 16.4099 37.1058 16.3799 37.0837C16.364 37.0733 16.3492 37.0614 16.3354 37.0483L16.4831 37.1199Z" fill="#525252"/>
<path d="M16.1425 38.253C15.9965 38.2136 15.8579 38.1509 15.732 38.0672L15.7202 38.0591L16.0482 38.2168C16.0786 38.2313 16.1101 38.2434 16.1425 38.253Z" fill="#525252"/>
<path d="M14.4897 32.9993C14.0455 33.0001 13.6066 32.903 13.2041 32.7149C12.8017 32.5268 12.4456 32.2524 12.1612 31.9112C11.8767 31.5699 11.671 31.1702 11.5585 30.7405C11.446 30.3107 11.4296 29.8615 11.5104 29.4246C11.8004 27.7247 13.8201 25.4141 14.0476 25.1559C14.1028 25.0938 14.1706 25.0441 14.2464 25.0101C14.3222 24.9761 14.4044 24.9585 14.4875 24.9585C14.5706 24.9585 14.6527 24.9761 14.7286 25.0101C14.8044 25.0441 14.8722 25.0938 14.9274 25.1559C15.1567 25.4141 17.1773 27.7247 17.4646 29.4246C17.5453 29.8611 17.529 30.3099 17.4167 30.7394C17.3045 31.1688 17.0992 31.5683 16.8153 31.9094C16.5313 32.2506 16.1758 32.5251 15.7739 32.7135C15.372 32.9018 14.9336 32.9994 14.4897 32.9993ZM14.4897 26.4634C13.812 27.3097 12.8288 28.6988 12.6721 29.6222C12.6186 29.9056 12.6317 30.1976 12.7103 30.4752C12.7889 30.7527 12.9309 31.0082 13.1251 31.2215C13.299 31.4105 13.5102 31.5614 13.7454 31.6647C13.9806 31.7679 14.2347 31.8212 14.4916 31.8212C14.7484 31.8212 15.0025 31.7679 15.2377 31.6647C15.4729 31.5614 15.6841 31.4105 15.858 31.2215C16.0522 31.0082 16.1943 30.7527 16.2729 30.4752C16.3515 30.1977 16.3646 29.9056 16.3111 29.6222C16.1489 28.697 15.1666 27.3088 14.4897 26.4634Z" fill="#525252"/>
<path d="M41.0204 8.97961C36.7715 4.73074 31.0088 2.34375 25 2.34375C18.9912 2.34375 13.2285 4.73074 8.97961 8.97961C4.73074 13.2285 2.34375 18.9912 2.34375 25C2.34375 31.0088 4.73074 36.7715 8.97961 41.0204C13.2285 45.2693 18.9912 47.6562 25 47.6562C31.0088 47.6562 36.7715 45.2693 41.0204 41.0204C45.2693 36.7715 47.6562 31.0088 47.6562 25C47.6562 18.9912 45.2693 13.2285 41.0204 8.97961ZM21.4733 36.526C21.4553 36.4508 21.4225 36.3799 21.377 36.3174C21.3315 36.2549 21.2741 36.2019 21.2082 36.1616C21.1422 36.1213 21.0689 36.0944 20.9925 36.0824C20.9161 36.0705 20.8381 36.0737 20.7629 36.0919L16.5177 37.1159C16.5071 37.1189 16.4961 37.1205 16.4851 37.1204C16.4478 37.1189 16.4119 37.1062 16.3818 37.0842C16.366 37.0737 16.3511 37.0619 16.3374 37.0488C16.2506 36.9603 16.1947 36.8463 16.1779 36.7235L16.1516 36.5695C16.1009 36.2659 16.2495 35.985 16.4035 35.9479L20.4693 35.0209C20.6973 34.9685 20.9366 35.0007 21.1426 35.1115C22.2562 35.6987 24.2307 37.2264 24.4146 37.3696V39.8488L22.6223 38.8602C22.0731 38.5417 21.4214 38.4497 20.8055 38.6037L16.4126 39.7147C16.2654 39.7514 16.112 39.7558 15.963 39.7277C15.8139 39.6995 15.6727 39.6394 15.5491 39.5515L15.5137 39.5298L11.7497 37.3732C11.7188 37.356 11.6219 37.2264 11.5793 36.9664C11.5313 36.6746 11.65 36.3946 11.7931 36.2922C11.8294 36.2659 11.8838 36.227 12.0369 36.2859L15.723 38.061L16.0511 38.2186C16.0803 38.233 16.1106 38.2451 16.1417 38.2549L16.1743 38.263C16.2758 38.2876 16.3798 38.3001 16.4842 38.3002C16.5889 38.2999 16.6932 38.2874 16.795 38.263L21.0393 37.2328C21.1906 37.1962 21.3212 37.1012 21.4025 36.9686C21.4839 36.8359 21.5093 36.6765 21.4733 36.5251V36.526ZM5.1793 16.7261H12.2861C13.1413 16.8618 13.9358 17.2521 14.5659 17.8461C15.1541 18.4197 15.5258 19.1791 15.6179 19.9954V21.7787H13.4097V20.1975C13.4097 20.1794 13.4097 20.1613 13.4097 20.1431C13.4001 19.9466 13.3669 19.7519 13.3109 19.5632C13.2451 19.3831 13.1377 19.221 12.9974 19.0902C12.7162 18.8164 12.3396 18.6627 11.9472 18.6616C11.5313 18.6526 6.25306 18.6752 4.47161 18.6834C4.67579 18.0171 4.91169 17.3646 5.1793 16.7261ZM24.411 46.4699C12.8388 46.1572 3.52471 36.6465 3.52471 25C3.52343 23.2695 3.73185 21.5453 4.14541 19.865C6.42161 19.8541 11.6237 19.8314 11.92 19.8414H11.9381C12.0144 19.8402 12.0888 19.8648 12.1493 19.9112C12.1493 19.9112 12.1493 19.9112 12.161 19.922C12.1757 19.9361 12.1896 19.9509 12.2027 19.9664C12.2136 20.0127 12.2254 20.1323 12.2344 20.2256V22.3722C12.2344 22.5284 12.2965 22.6782 12.4069 22.7887C12.5174 22.8992 12.6672 22.9612 12.8234 22.9612H16.2105C16.3667 22.9612 16.5166 22.8992 16.627 22.7887C16.7375 22.6782 16.7995 22.5284 16.7995 22.3722V19.98C16.8 19.9728 16.8 19.9655 16.7995 19.9583C16.7014 18.834 16.2004 17.783 15.3887 16.9989C14.5611 16.2161 13.5109 15.7095 12.383 15.5491H12.325H5.71573C9.13637 8.59904 16.2105 3.75214 24.411 3.53014V35.8881C23.6598 35.3272 22.4964 34.4926 21.6881 34.0667C21.2336 33.8241 20.7065 33.7549 20.2048 33.8719L16.1335 34.7998C15.4512 34.9647 14.9827 35.6262 14.9628 36.3864L12.5262 35.2085L12.4927 35.1931C11.9997 34.9919 11.5059 35.0399 11.1036 35.3272C10.5744 35.7068 10.2962 36.439 10.4131 37.1503C10.4675 37.4829 10.6369 38.0854 11.1589 38.3872L14.9075 40.5347C15.1666 40.7112 15.4599 40.8311 15.7684 40.8867C16.0769 40.9423 16.3937 40.9323 16.698 40.8573L21.091 39.7455C21.4126 39.6651 21.753 39.7152 22.0379 39.885L22.046 39.8895L24.411 41.1944V46.4699ZM25.589 46.4699V3.53014C37.1612 3.84276 46.4753 13.3535 46.4753 25C46.4753 36.6465 37.1612 46.1572 25.589 46.4699Z" fill="#525252"/>
</svg>
