<svg width="46" height="35" viewBox="0 0 46 35" fill="none" xmlns="http://www.w3.org/2000/svg">
<path d="M43.8208 3.02355L34.0015 1.149C33.465 1.04723 32.9104 1.1639 32.4593 1.4734C32.0081 1.78289 31.6975 2.25992 31.5954 2.79977L31.282 4.46706C31.2308 4.73461 31.233 5.00973 31.2884 5.27643C31.3437 5.54313 31.4512 5.79609 31.6045 6.02062C31.6455 6.08115 31.6892 6.13893 31.7348 6.19395C31.418 7.01476 31.271 7.89205 31.3028 8.77206C31.3346 9.65207 31.5446 10.5163 31.92 11.3117C32.2953 12.1071 32.828 12.8171 33.4854 13.398C34.1429 13.9789 34.9112 14.4185 35.7434 14.6899C34.4625 16.4178 33.5332 19.4735 32.9738 23.8068C32.5638 27.1241 32.3872 30.4664 32.4454 33.8087H28.2008C28.2336 32.8788 28.3393 29.159 28.1097 25.121C27.8218 20.0577 27.134 16.4324 26.0608 14.2993C26.8457 13.8995 27.5405 13.3414 28.1019 12.6598C28.6634 11.9782 29.0796 11.1875 29.3246 10.3371C29.5696 9.48663 29.6381 8.59454 29.526 7.71627C29.4139 6.83801 29.1234 5.99236 28.6728 5.23192C28.9444 4.8525 29.1329 4.41932 29.2257 3.96107C29.3185 3.50281 29.3135 3.02993 29.2111 2.57375C29.1087 2.11757 28.9112 1.6885 28.6316 1.31496C28.352 0.941414 27.9968 0.63192 27.5895 0.406974C27.1822 0.182029 26.732 0.0467642 26.2688 0.0101394C25.8057 -0.0264854 25.3401 0.0363658 24.9028 0.19453C24.4656 0.352693 24.0667 0.60256 23.7327 0.927582C23.3986 1.2526 23.137 1.64537 22.965 2.07985C21.5406 2.12343 20.171 2.64307 19.0724 3.55682C17.9738 4.47057 17.2085 5.72644 16.8974 7.12641C16.5862 8.52637 16.7468 9.99078 17.3539 11.2887C17.9609 12.5866 18.9799 13.6442 20.2501 14.2947C19.1751 16.4233 18.4872 20.0504 18.1984 25.1164C17.9688 29.1517 18.0745 32.8751 18.1073 33.8041H13.8582C13.9721 30.2017 13.8791 22.9943 13.6423 20.453C14.116 20.1329 14.7565 19.4937 14.6007 18.2648L14.5952 18.2299C14.413 17.2422 13.5111 15.3163 11.8621 14.0892C12.7486 13.5596 13.4953 12.8225 14.0387 11.9406C14.5822 11.0587 14.9065 10.058 14.9841 9.0231C15.0617 7.98824 14.8903 6.9498 14.4845 5.99578C14.0787 5.04176 13.4504 4.20027 12.6529 3.54262C12.5235 3.43502 12.3899 3.33322 12.252 3.23723C11.2899 2.56072 10.1619 2.16292 8.9908 2.08716C7.81968 2.0114 6.65036 2.26059 5.6102 2.80758C4.57004 3.35457 3.69893 4.17839 3.09175 5.1893C2.48456 6.20022 2.16459 7.35948 2.16668 8.54081C2.16677 8.81 2.18351 9.07892 2.21678 9.34602C1.72973 9.51399 1.28881 9.79502 0.929682 10.1664C0.570558 10.5377 0.303324 10.989 0.149604 11.4836C-0.0041146 11.9782 -0.0400008 12.5023 0.0448499 13.0135C0.129701 13.5247 0.332905 14.0085 0.638019 14.426C0.943133 14.8434 1.34159 15.1827 1.80114 15.4163C2.26069 15.65 2.76843 15.7715 3.28327 15.7709C3.79811 15.7704 4.30559 15.6478 4.76464 15.4132C5.2237 15.1785 5.62144 14.8384 5.92567 14.4203L5.9448 14.4286C5.76806 15.6098 5.574 18.2529 5.46194 24.4809C5.38997 28.4776 5.38268 32.4184 5.38177 33.8078H2.97113C2.81408 33.8078 2.66345 33.8706 2.5524 33.9824C2.44134 34.0942 2.37895 34.2458 2.37895 34.4039C2.37895 34.562 2.44134 34.7136 2.5524 34.8254C2.66345 34.9372 2.81408 35 2.97113 35H43.3388C43.4959 35 43.6465 34.9372 43.7576 34.8254C43.8686 34.7136 43.931 34.562 43.931 34.4039C43.931 34.2458 43.8686 34.0942 43.7576 33.9824C43.6465 33.8706 43.4959 33.8078 43.3388 33.8078H40.9182C40.9182 32.4175 40.91 28.4776 40.838 24.4809C40.7742 20.9592 40.685 18.5849 40.5875 16.9717H42.4096C42.4978 16.9719 42.5848 16.9522 42.6645 16.9141C42.7441 16.876 42.8143 16.8204 42.8698 16.7515C42.9254 16.6825 42.9649 16.602 42.9855 16.5157C43.0062 16.4294 43.0073 16.3395 42.989 16.2527L42.3166 13.0428C43.4854 11.8401 44.1395 10.2242 44.1387 8.54172V8.53072C44.3997 8.38278 44.6254 8.17925 44.8001 7.93435C44.9748 7.68945 45.0942 7.40909 45.15 7.11288L45.4643 5.4456C45.5145 5.17793 45.5117 4.90293 45.4562 4.63633C45.4008 4.36972 45.2937 4.11673 45.141 3.89181C44.9884 3.66688 44.7933 3.47443 44.5667 3.32545C44.3402 3.17647 44.0867 3.07388 43.8208 3.02355ZM8.58411 3.26933C9.52245 3.26736 10.4439 3.52086 11.2508 4.00301C11.0078 4.31849 10.7612 4.6196 10.511 4.90635C8.70619 6.9744 6.71099 8.31245 4.55272 8.90214C4.16927 9.00694 3.77983 9.08811 3.38657 9.14517C3.36275 8.94277 3.35088 8.73912 3.35104 8.5353C3.35321 7.13903 3.90531 5.8006 4.88628 4.81346C5.86725 3.82632 7.19705 3.27103 8.58411 3.26933ZM3.26996 14.5918C2.78054 14.5971 2.30474 14.4297 1.92511 14.1187C1.54549 13.8077 1.28598 13.3727 1.19161 12.8893C1.09725 12.4058 1.17398 11.9044 1.4085 11.4719C1.64302 11.0395 2.02052 10.7033 2.47552 10.5217C2.90457 11.8563 3.75203 13.0148 4.89072 13.8233C4.6938 14.064 4.4463 14.2578 4.16604 14.3907C3.88579 14.5236 3.57975 14.5923 3.26996 14.5918ZM5.35991 12.687C4.60814 12.0936 4.03089 11.3055 3.68995 10.4071C3.67902 10.3768 3.66718 10.3457 3.65715 10.3154C4.22758 10.2266 4.79021 10.0929 5.33986 9.91554C7.86256 9.10482 10.1584 7.36784 12.191 4.73026C13.0852 5.58752 13.6493 6.73559 13.7836 7.97128C13.9178 9.20698 13.6134 10.4506 12.9243 11.4822C12.2353 12.5137 11.2059 13.2666 10.0184 13.6076C8.83092 13.9486 7.56188 13.8558 6.43586 13.3455C6.39941 13.329 6.36297 13.3125 6.32744 13.2941C5.98355 13.1285 5.65904 12.9249 5.35991 12.687ZM12.7394 19.6093C12.6321 19.6657 12.5446 19.7539 12.4888 19.862C12.4329 19.9701 12.4113 20.0928 12.4269 20.2136C12.6902 22.2624 12.7968 30.0568 12.6747 33.8078H6.57069C6.5634 25.9822 6.73741 17.4972 7.0827 14.8238C8.2403 15.1054 9.45288 15.0571 10.5848 14.6844C10.6905 14.7413 10.7943 14.8024 10.8964 14.8679C12.4889 15.8969 13.2888 17.7054 13.4336 18.4445C13.5029 19.0718 13.2305 19.3479 12.7376 19.6093H12.7394ZM26.0289 1.16C26.5848 1.16073 27.1179 1.38304 27.5114 1.77833C27.9049 2.17362 28.1269 2.7097 28.1289 3.26933C28.1296 3.59176 28.0563 3.91 27.9148 4.19927C26.9504 3.12646 25.6556 2.4113 24.2387 2.16881C24.4265 1.86063 24.6897 1.60608 25.0031 1.42947C25.3166 1.25286 25.6697 1.16008 26.0289 1.16ZM17.9269 8.53897C17.929 7.21553 18.425 5.94119 19.3167 4.96867C20.2084 3.99614 21.4306 3.39648 22.7409 3.28859C22.8785 3.27758 23.0142 3.27208 23.1573 3.27208C24.545 3.27305 25.8757 3.82849 26.8569 4.81638C27.8381 5.80428 28.3896 7.14384 28.3903 8.54081C28.3905 8.74463 28.3786 8.94827 28.3548 9.15068C26.2056 8.82878 24.6787 7.66498 23.6902 5.59876C23.6527 5.52012 23.5984 5.45081 23.5311 5.39579C23.4639 5.34077 23.3854 5.30141 23.3012 5.28052L23.2648 5.27227L23.2165 5.26493C23.175 5.26034 23.1332 5.26034 23.0917 5.26493L23.0434 5.27227L23.0069 5.28052C22.9226 5.30123 22.8439 5.34051 22.7765 5.39554C22.709 5.45057 22.6546 5.51998 22.617 5.59876C21.6303 7.66314 20.1043 8.82694 17.9588 9.14976C17.9362 8.94759 17.9256 8.74425 17.9269 8.54081V8.53897ZM18.2321 10.3117C20.3603 9.96781 22.0121 8.88013 23.1582 7.07345C24.3043 8.88197 25.9587 9.96964 28.0888 10.3136C27.6225 11.6141 26.6698 12.6798 25.434 13.2831C25.0485 13.4716 24.6411 13.6109 24.2214 13.6976C23.5182 13.8444 22.7927 13.8444 22.0895 13.6976C21.67 13.6098 21.2629 13.4696 20.8778 13.2804C19.6455 12.6763 18.6962 11.6118 18.2321 10.3136V10.3117ZM27.0165 33.8087H19.2917C19.1168 29.491 19.207 18.8169 21.3534 14.7404C22.5307 15.0871 23.782 15.0871 24.9593 14.7404C25.9688 16.6516 26.6439 20.2127 26.9272 25.177C27.1586 29.2415 27.0465 32.9833 27.0165 33.8087ZM32.4828 8.54172C32.4827 7.96485 32.5772 7.39191 32.7625 6.84601C32.8158 6.86165 32.87 6.87451 32.9246 6.88453L38.2406 7.89884L38.4465 13.7554C38.205 13.7891 37.9615 13.806 37.7177 13.8059C36.3298 13.8059 34.9987 13.2509 34.0173 12.263C33.0359 11.2751 32.4846 9.93517 32.4846 8.53805L32.4828 8.54172ZM39.7347 33.8087H33.6307C33.5719 30.5173 33.7445 27.2259 34.1473 23.9591C34.7331 19.4194 35.7334 16.3316 37.0526 14.9715C37.2713 14.9935 37.4926 15.0054 37.7168 15.0054C37.9734 15.0055 38.2299 14.9902 38.4848 14.9596L38.5358 16.4013C38.5414 16.5556 38.6063 16.7017 38.7167 16.8089C38.8271 16.9162 38.9745 16.9761 39.128 16.9763H39.4013C39.6281 20.7465 39.7402 27.4926 39.7347 33.8087ZM39.6983 15.7804L39.6163 13.4491L39.4341 8.37206L40.1274 8.39407L41.0166 12.6237L41.2853 13.9077L41.6771 15.7804H39.6983ZM42.0032 11.5617L41.3655 8.50321L42.7421 8.76641C42.8096 8.77942 42.8777 8.78891 42.9462 8.79484C42.8986 9.78702 42.5715 10.7451 42.0032 11.5571V11.5617ZM44.2964 5.22275L43.982 6.89003C43.9749 6.92935 43.9646 6.968 43.9511 7.00558C43.8932 7.18039 43.7822 7.33244 43.6337 7.44024C43.4852 7.54804 43.3069 7.60613 43.1238 7.60628C43.0691 7.60603 43.0145 7.60081 42.9608 7.59069L42.8605 7.57143L33.2809 5.74549L33.1405 5.7189C32.9447 5.68129 32.7675 5.57737 32.6384 5.42439C32.5093 5.27141 32.436 5.07858 32.4308 4.87792C32.4292 4.81643 32.4341 4.75494 32.4454 4.6945L32.7625 3.02079C32.8006 2.81987 32.907 2.63858 33.0634 2.50804C33.2199 2.37751 33.4166 2.30588 33.6198 2.30546C33.6745 2.30523 33.7291 2.31045 33.7828 2.32105L43.604 4.19468C43.8309 4.2391 44.0312 4.3722 44.1609 4.56486C44.2907 4.75751 44.3394 4.99405 44.2964 5.22275Z" fill="#525252"/>
</svg>
