<svg width="50" height="50" viewBox="0 0 50 50" fill="none" xmlns="http://www.w3.org/2000/svg">
<path d="M39.4117 25.6909C37.4019 19.979 33.7076 14.3257 30.9566 10.5913C29.2316 8.23566 27.3874 5.96969 25.4312 3.80225L25.4175 3.7876C25.4068 3.77588 25.3951 3.76416 25.3843 3.7544C25.3759 3.74579 25.3668 3.73795 25.357 3.73096L25.3394 3.71729C25.3278 3.70848 25.3158 3.70033 25.3033 3.69287C25.3033 3.69287 25.3033 3.69287 25.2964 3.69287C25.2863 3.68488 25.2751 3.67831 25.2632 3.67334C25.2556 3.66847 25.2474 3.66453 25.2388 3.66162C25.2288 3.65639 25.2184 3.65214 25.2076 3.64893C25.1934 3.64189 25.1787 3.63602 25.1636 3.63135L25.1275 3.62256C25.1147 3.61934 25.1016 3.61705 25.0884 3.61573L25.0513 3.61084C25.0163 3.60693 24.9809 3.60693 24.9459 3.61084L24.9087 3.61573C24.8959 3.61714 24.8832 3.61942 24.8707 3.62256L24.8345 3.63135C24.819 3.63576 24.804 3.64165 24.7896 3.64893C24.7788 3.65214 24.7683 3.65639 24.7584 3.66162C24.7498 3.66453 24.7416 3.66847 24.7339 3.67334C24.722 3.67831 24.7109 3.68488 24.7007 3.69287C24.7007 3.69287 24.7007 3.69287 24.6939 3.69287C24.6814 3.70033 24.6693 3.70848 24.6578 3.71729L24.6402 3.73096C24.6304 3.73795 24.6213 3.74579 24.6128 3.7544C24.5982 3.76807 24.5836 3.78369 24.5699 3.79834C22.6129 5.967 20.768 8.23428 19.0425 10.5913C16.2925 14.3257 12.5972 19.979 10.5884 25.6909C9.74106 28.0756 9.48962 30.6312 9.85601 33.1353C10.2069 35.5183 11.0978 37.7897 12.4605 39.7759C15.2505 43.8364 19.6529 46.2466 24.5386 46.3872C24.691 46.3872 24.8462 46.394 25.0005 46.394C25.1548 46.394 25.3101 46.394 25.4625 46.3872C30.3453 46.2466 34.7505 43.8364 37.5406 39.7759C38.9033 37.7897 39.7942 35.5183 40.1451 33.1353C40.5112 30.6311 40.2594 28.0755 39.4117 25.6909ZM36.5972 39.1304C34.0152 42.8862 29.9449 45.1177 25.4293 45.2456C25.2867 45.2505 25.1421 45.2524 24.9996 45.2524C24.857 45.2524 24.7125 45.2524 24.5699 45.2456C20.0543 45.1147 15.9839 42.8862 13.4019 39.1304C12.0955 37.2489 11.2566 35.083 10.9548 32.8125C10.653 30.5419 10.897 28.2321 11.6666 26.0747C14.9752 16.6431 23.0679 7.19971 24.9996 5.03076C26.9312 7.19971 35.024 16.6431 38.3326 26.0747C39.1021 28.2321 39.3461 30.5419 39.0443 32.8125C38.7425 35.083 37.9036 37.2489 36.5972 39.1304Z" fill="#d90414"/>
<path d="M24.9996 41.5561C24.9225 41.5593 24.8456 41.5469 24.7734 41.5196C24.7013 41.4923 24.6354 41.4507 24.5797 41.3972C24.5241 41.3438 24.4798 41.2797 24.4495 41.2088C24.4193 41.1378 24.4037 41.0615 24.4037 40.9843C24.4037 40.9072 24.4193 40.8308 24.4495 40.7599C24.4798 40.6889 24.5241 40.6248 24.5797 40.5714C24.6354 40.518 24.7013 40.4764 24.7734 40.4491C24.8456 40.4218 24.9225 40.4094 24.9996 40.4125C27.2782 40.4105 29.4628 39.5044 31.074 37.8932C32.6852 36.282 33.5913 34.0974 33.5933 31.8188C33.5901 31.7417 33.6026 31.6648 33.6299 31.5927C33.6572 31.5205 33.6988 31.4546 33.7522 31.399C33.8056 31.3433 33.8697 31.299 33.9407 31.2688C34.0116 31.2385 34.088 31.2229 34.1651 31.2229C34.2423 31.2229 34.3186 31.2385 34.3896 31.2688C34.4605 31.299 34.5246 31.3433 34.578 31.399C34.6314 31.4546 34.673 31.5205 34.7003 31.5927C34.7276 31.6648 34.7401 31.7417 34.7369 31.8188C34.7346 34.4006 33.7079 36.8759 31.8823 38.7015C30.0567 40.5271 27.5814 41.5538 24.9996 41.5561Z" fill="#d90414"/>
</svg>
